<svg width="5" height="9" viewBox="0 0 5 9" fill="none" xmlns="http://www.w3.org/2000/svg">
<path d="M4.37188 2.86102e-05C4.49592 -0.000692368 4.61736 0.0355415 4.72073 0.10411C4.82409 0.172679 4.9047 0.270476 4.95226 0.385035C4.99983 0.499592 5.0122 0.62572 4.9878 0.747336C4.9634 0.868953 4.90334 0.980549 4.81527 1.0679L1.5055 4.37142L4.81527 7.67494C4.93286 7.79253 4.99892 7.95202 4.99892 8.11832C4.99892 8.20067 4.9827 8.2822 4.95119 8.35828C4.91968 8.43436 4.87349 8.50348 4.81527 8.56171C4.75704 8.61993 4.68792 8.66612 4.61184 8.69763C4.53577 8.72914 4.45423 8.74536 4.37188 8.74536C4.20558 8.74536 4.04609 8.6793 3.9285 8.56171L0.181595 4.8148C0.0652847 4.6978 0 4.53952 0 4.37454C0 4.20956 0.0652847 4.05128 0.181595 3.93428L3.9285 0.187373C3.98634 0.128367 4.05531 0.0814257 4.13142 0.0492668C4.20753 0.017108 4.28926 0.000371933 4.37188 2.86102e-05Z" fill="#2C2D30"/>
</svg>
