<svg width="26" height="15" viewBox="0 0 26 15" fill="none" xmlns="http://www.w3.org/2000/svg">
<path d="M1.75 2.5H24.25C24.5815 2.5 24.8995 2.3683 25.1339 2.13388C25.3683 1.89946 25.5 1.58152 25.5 1.25C25.5 0.918479 25.3683 0.600537 25.1339 0.366117C24.8995 0.131696 24.5815 0 24.25 0H1.75C1.41848 0 1.10054 0.131696 0.866116 0.366117C0.631696 0.600537 0.5 0.918479 0.5 1.25C0.5 1.58152 0.631696 1.89946 0.866116 2.13388C1.10054 2.3683 1.41848 2.5 1.75 2.5ZM24.25 12.5H1.75C1.41848 12.5 1.10054 12.6317 0.866116 12.8661C0.631696 13.1005 0.5 13.4185 0.5 13.75C0.5 14.0815 0.631696 14.3995 0.866116 14.6339C1.10054 14.8683 1.41848 15 1.75 15H24.25C24.5815 15 24.8995 14.8683 25.1339 14.6339C25.3683 14.3995 25.5 14.0815 25.5 13.75C25.5 13.4185 25.3683 13.1005 25.1339 12.8661C24.8995 12.6317 24.5815 12.5 24.25 12.5ZM24.25 6.25H1.75C1.41848 6.25 1.10054 6.3817 0.866116 6.61612C0.631696 6.85054 0.5 7.16848 0.5 7.5C0.5 7.83152 0.631696 8.14946 0.866116 8.38388C1.10054 8.6183 1.41848 8.75 1.75 8.75H24.25C24.5815 8.75 24.8995 8.6183 25.1339 8.38388C25.3683 8.14946 25.5 7.83152 25.5 7.5C25.5 7.16848 25.3683 6.85054 25.1339 6.61612C24.8995 6.3817 24.5815 6.25 24.25 6.25Z" fill="#022561"/>
</svg>
