<svg width="20" height="20" viewBox="0 0 19 20" fill="none" xmlns="http://www.w3.org/2000/svg">
<path d="M15.6437 2.36877H14.5374V2.27459C14.5374 1.59388 13.9836 1.04015 13.3031 1.04015C12.6231 1.04015 12.0696 1.59391 12.0696 2.27459V2.36877H6.73863V2.23346C6.73863 1.55333 6.18519 1 5.50517 1C4.82461 1 4.27088 1.55333 4.27088 2.23346V2.36877H3.35714C2.0573 2.36877 1 3.49102 1 4.87057V16.5087C1 17.8882 2.05727 19.0105 3.35714 19.0105H15.6437C16.943 19.0105 18 17.8882 18 16.5087V4.87057C18 3.49102 16.943 2.36877 15.6437 2.36877ZM12.6506 2.27459C12.6506 1.91432 12.9434 1.62113 13.3031 1.62113C13.6633 1.62113 13.9564 1.91432 13.9564 2.27459V3.16338C13.9564 3.52365 13.6633 3.81684 13.3031 3.81684C12.9434 3.81684 12.6506 3.52365 12.6506 3.16338V2.27459ZM4.85186 2.23346C4.85186 1.87374 5.14491 1.58098 5.50517 1.58098C5.86489 1.58098 6.15765 1.87374 6.15765 2.23346V3.12323C6.15765 3.48295 5.86489 3.7757 5.50517 3.7757C5.14491 3.7757 4.85186 3.48295 4.85186 3.12323V2.23346ZM17.419 16.5087C17.419 17.5678 16.6227 18.4295 15.6437 18.4295H3.35714C2.37786 18.4295 1.58098 17.5678 1.58098 16.5087V5.8992H17.419V16.5087ZM17.419 5.31821H1.58101V4.87057C1.58101 3.81143 2.37789 2.94975 3.35716 2.94975H4.27091V3.12323C4.27091 3.80336 4.82467 4.35669 5.5052 4.35669C6.18519 4.35669 6.73866 3.80336 6.73866 3.12323V2.94975H12.0696V3.16338C12.0696 3.84409 12.6231 4.39782 13.3031 4.39782C13.9837 4.39782 14.5374 3.84406 14.5374 3.16338V2.94975H15.6438C16.6228 2.94975 17.419 3.81143 17.419 4.87057L17.419 5.31821Z" fill="#022561" stroke="#022561" stroke-width="0.4"/>
<path d="M3.52535 16.997H6.51283H15.4752C15.6358 16.997 15.7657 16.8669 15.7657 16.7065V7.74365C15.7657 7.58324 15.6358 7.45316 15.4752 7.45316H3.52535C3.3648 7.45316 3.23486 7.58324 3.23486 7.74365V16.7065C3.23486 16.8669 3.3648 16.997 3.52535 16.997ZM15.1848 13.4284H12.7783V11.0218H15.1848V13.4284ZM12.1973 13.4284H9.79079V11.0218H12.1973V13.4284ZM9.20981 13.4284H6.80332V11.0218H9.20981V13.4284ZM6.22234 13.4284H3.81585V11.0218H6.22234V13.4284ZM3.81585 14.0094H6.22234V16.416H3.81585V14.0094ZM6.80332 14.0094H9.20981V16.416H6.80332V14.0094ZM9.79079 14.0094H12.1973V16.416H9.79079V14.0094ZM15.1848 16.416H12.7783V14.0093H15.1848V16.416ZM15.1848 10.4408H12.7783V8.03414H15.1848V10.4408ZM12.1973 10.4408H9.79079V8.03414H12.1973V10.4408ZM9.20981 10.4408H6.80332V8.03414H9.20981V10.4408ZM3.81585 8.03414H6.22234V10.4408H3.81585V8.03414Z" fill="#022561" stroke="#022561" stroke-width="0.4"/>
</svg>
