<svg width="28" height="28" viewBox="0 0 28 28" fill="none" xmlns="http://www.w3.org/2000/svg">
<path fill-rule="evenodd" clip-rule="evenodd" d="M26.8032 11.8787C27.0741 13.2916 25.882 14.4688 24.4434 14.4688H15.9778C14.5392 14.4688 13.373 13.3026 13.373 11.864V3.39847C13.373 1.95989 14.5503 0.767777 15.9631 1.03864C21.4385 2.08833 25.7536 6.40333 26.8032 11.8787ZM24.8847 12.2465C23.9855 7.55689 20.285 3.85636 15.5953 2.9573C15.5604 2.95059 15.5471 2.9548 15.5432 2.95606C15.5355 2.95847 15.5114 2.96781 15.4785 2.99896C15.4061 3.06716 15.3266 3.20744 15.3266 3.39847V11.864C15.3266 12.2237 15.6182 12.5152 15.9778 12.5152H24.4434C24.6345 12.5152 24.7747 12.4358 24.843 12.3635C24.8741 12.3304 24.8832 12.3069 24.8857 12.2991C24.887 12.2951 24.8913 12.2816 24.8847 12.2465Z" fill="white" stroke="white"/>
<path d="M10.2819 2.48528C10.8725 2.3334 11.4192 2.8013 11.4192 3.41109C11.4192 3.88763 11.0785 4.29188 10.6188 4.41753C6.2008 5.62523 2.95359 9.66783 2.95359 14.4688C2.95359 20.2232 7.61841 24.888 13.3728 24.888C18.1738 24.888 22.2164 21.6408 23.4241 17.2229C23.5497 16.7632 23.9539 16.4224 24.4305 16.4224C25.0403 16.4224 25.5082 16.9691 25.3564 17.5597C23.9836 22.8974 19.1389 26.8416 13.3728 26.8416C6.53948 26.8416 1 21.3021 1 14.4688C1 8.70279 4.94428 3.85797 10.2819 2.48528Z" fill="white" stroke="white"/>
</svg>
