<svg width="40" height="40" viewBox="0 0 40 40" fill="none" xmlns="http://www.w3.org/2000/svg">
<circle cx="20" cy="20" r="20" fill="#FF947A"/>
<path d="M20.6301 23.8259V24.825C20.6301 24.9042 20.6144 24.9825 20.5841 25.0557C20.5538 25.1289 20.5094 25.1955 20.4534 25.2514C20.3974 25.3075 20.3309 25.3517 20.2578 25.382C20.1847 25.4123 20.1062 25.4279 20.027 25.4279C19.9479 25.4279 19.8694 25.4123 19.7962 25.382C19.7231 25.3517 19.6566 25.3075 19.6007 25.2514C19.5447 25.1955 19.5002 25.1289 19.47 25.0557C19.4396 24.9825 19.424 24.9042 19.424 24.825V23.7991C19.0247 23.7335 18.6423 23.5891 18.2993 23.3744C17.9563 23.1596 17.6594 22.8786 17.426 22.5479C17.341 22.44 17.2936 22.3074 17.291 22.17C17.2921 22.0928 17.3088 22.0166 17.3399 21.9459C17.3711 21.8753 17.4162 21.8116 17.4724 21.7587C17.5287 21.7058 17.595 21.6648 17.6674 21.6381C17.7398 21.6113 17.8169 21.5993 17.894 21.6029C17.9703 21.6031 18.0458 21.6194 18.1155 21.6504C18.1852 21.6814 18.2477 21.7266 18.299 21.7831C18.5891 22.1589 18.9789 22.4457 19.424 22.611V20.316C18.227 19.848 17.624 19.1459 17.624 18.2369C17.6421 17.7503 17.8333 17.2861 18.1634 16.928C18.4934 16.5699 18.9404 16.3416 19.424 16.284V15.2939C19.424 15.2147 19.4396 15.1364 19.47 15.0632C19.5002 14.99 19.5447 14.9236 19.6007 14.8676C19.6566 14.8116 19.7231 14.7672 19.7962 14.7369C19.8694 14.7066 19.9479 14.691 20.027 14.691C20.1062 14.691 20.1847 14.7066 20.2578 14.7369C20.3309 14.7672 20.3974 14.8116 20.4534 14.8676C20.5094 14.9236 20.5538 14.99 20.5841 15.0632C20.6144 15.1364 20.6301 15.2147 20.6301 15.2939V16.275C20.965 16.3275 21.2858 16.4469 21.5735 16.6263C21.8611 16.8057 22.1096 17.0412 22.304 17.3189C22.3898 17.4201 22.4403 17.5466 22.448 17.679C22.4504 17.7566 22.4374 17.8337 22.4096 17.9063C22.3818 17.9787 22.34 18.045 22.2863 18.1011C22.2327 18.1573 22.1684 18.2022 22.0973 18.2332C22.0262 18.2643 21.9497 18.2808 21.872 18.282C21.7908 18.2798 21.711 18.2601 21.638 18.2244C21.565 18.1887 21.5006 18.1377 21.449 18.075C21.2344 17.8069 20.9516 17.6018 20.6301 17.4811V19.5061L20.8551 19.5959C21.9981 20.0459 22.7091 20.694 22.7091 21.72C22.6957 22.2697 22.4731 22.7936 22.0868 23.1849C21.7005 23.5763 21.1795 23.8054 20.6301 23.8259ZM19.424 18.984V17.5169C19.2787 17.5696 19.1537 17.6666 19.0665 17.7942C18.9794 17.9217 18.9344 18.0735 18.9381 18.2279C18.9354 18.3879 18.98 18.5452 19.0665 18.6796C19.153 18.8142 19.2774 18.92 19.424 18.984ZM21.395 21.747C21.395 21.315 21.0981 21.054 20.6301 20.847V22.647C20.8446 22.6145 21.0403 22.5054 21.1809 22.3401C21.3215 22.1747 21.3975 21.9641 21.395 21.747Z" fill="white"/>
<path d="M25.4 12H14.6C13.6452 12 12.7295 12.3793 12.0544 13.0545C11.3793 13.7296 11 14.6452 11 15.6V24.6C11 25.5547 11.3793 26.4704 12.0544 27.1455C12.7295 27.8207 13.6452 28.2 14.6 28.2H25.4C26.3548 28.2 27.2705 27.8207 27.9456 27.1455C28.6207 26.4704 29 25.5547 29 24.6V15.6C29 14.6452 28.6207 13.7296 27.9456 13.0545C27.2705 12.3793 26.3548 12 25.4 12Z" stroke="white" stroke-width="1.8" stroke-linecap="round" stroke-linejoin="round"/>
</svg>
