<svg width="22" height="21" viewBox="0 0 22 21" fill="none" xmlns="http://www.w3.org/2000/svg">
<path d="M16.6254 10.1638C16.1416 10.1638 15.7505 10.5433 15.7505 11.0108V17.7869C15.7505 18.2536 15.3584 18.6339 14.8755 18.6339H2.62508C2.14201 18.6339 1.7501 18.2536 1.7501 17.7869V5.9287C1.7501 5.46203 2.14201 5.08174 2.62508 5.08174H9.62534C10.1092 5.08174 10.5003 4.70223 10.5003 4.23478C10.5003 3.76718 10.1092 3.38766 9.62534 3.38766H2.62508C1.17779 3.38766 0 4.52775 0 5.9287V17.7869C0 19.1879 1.17779 20.328 2.62508 20.328H14.8755C16.3228 20.328 17.5006 19.1879 17.5006 17.7869V11.0108C17.5006 10.5424 17.1093 10.1638 16.6254 10.1638Z" fill="#022561"/>
<path d="M8.20401 9.39207C8.14281 9.45131 8.10163 9.52669 8.08417 9.60796L7.46555 12.6031C7.43671 12.7419 7.48221 12.8851 7.58539 12.9859C7.66855 13.0664 7.78054 13.1095 7.89526 13.1095C7.92314 13.1095 7.95214 13.107 7.98098 13.1011L11.0742 12.5023C11.1599 12.4852 11.2378 12.4455 11.2982 12.3861L18.2214 5.68458L15.1282 2.69052L8.20401 9.39207Z" fill="#022561"/>
<path d="M20.3608 0.619401C19.5078 -0.206467 18.12 -0.206467 17.2676 0.619401L16.0566 1.79159L19.1499 4.78581L20.3608 3.61346C20.7739 3.21456 21.0014 2.6826 21.0014 2.11682C21.0014 1.55104 20.7739 1.01907 20.3608 0.619401Z" fill="#022561"/>
</svg>
