<svg width="24" height="24" viewBox="0 0 24 24" fill="none" xmlns="http://www.w3.org/2000/svg">
<rect x="4" y="4" width="15" height="15" fill="#022561"/>
<path d="M22.125 0H1.875C0.839062 0 0 0.839062 0 1.875V22.125C0 23.1609 0.839062 24 1.875 24H22.125C23.1609 24 24 23.1609 24 22.125V1.875C24 0.839062 23.1609 0 22.125 0ZM16.7906 10.1344C16.7953 10.2375 16.7953 10.3453 16.7953 10.4531C16.7953 13.7109 14.3156 17.4703 9.77813 17.4703C8.38594 17.4703 7.0875 17.0625 6 16.3641C6.19219 16.3875 6.38906 16.3969 6.59063 16.3969C7.74375 16.3969 8.80781 16.0031 9.65156 15.3422C8.57344 15.3234 7.65938 14.6109 7.35 13.6312C7.5 13.6594 7.65469 13.6734 7.81406 13.6734C8.03906 13.6734 8.25938 13.6453 8.46563 13.5844C7.33594 13.3594 6.4875 12.3609 6.4875 11.1656V11.1375C6.82031 11.3203 7.2 11.4328 7.60312 11.4469C6.94219 11.0063 6.50625 10.2469 6.50625 9.39375C6.50625 8.94375 6.62812 8.51719 6.83906 8.15156C8.05781 9.64687 9.87187 10.6266 11.9203 10.7297C11.8781 10.5516 11.8547 10.3641 11.8547 10.1672C11.8547 8.80781 12.9609 7.70156 14.3203 7.70156C15.0281 7.70156 15.6703 8.00156 16.1203 8.47969C16.6828 8.36719 17.2078 8.16563 17.6859 7.87969C17.5031 8.45625 17.1094 8.93906 16.6031 9.24375C17.1 9.18281 17.5781 9.05156 18.0187 8.85469C17.6906 9.35156 17.2734 9.78281 16.7906 10.1344Z" fill="#022561"/>
<path d="M5.02203 10.1867L10.6191 13.9501C11.1181 14.2842 11.3676 14.4513 11.6372 14.5162C11.8755 14.5736 12.1239 14.5736 12.3622 14.5162C12.6319 14.4513 12.8814 14.2842 13.3803 13.9501L18.9774 10.1867M10.6763 5.55248L6.16522 8.39845C5.73983 8.66682 5.52714 8.801 5.37287 8.9824C5.23633 9.14294 5.13359 9.32963 5.07086 9.53117C5 9.75888 5 10.0112 5 10.5158V15.4997C5 16.3749 5 16.8125 5.16955 17.1468C5.31868 17.4408 5.55665 17.6799 5.84935 17.8297C6.1821 18 6.61769 18 7.48889 18H16.5111C17.3823 18 17.8179 18 18.1507 17.8297C18.4433 17.6799 18.6813 17.4408 18.8304 17.1468C19 16.8125 19 16.3749 19 15.4997V10.5158C19 10.0112 19 9.75888 18.9291 9.53117C18.8664 9.32963 18.7637 9.14294 18.6271 8.9824C18.4729 8.801 18.2602 8.66682 17.8348 8.39845L13.3237 5.55248C12.8436 5.24961 12.6036 5.09818 12.346 5.03915C12.1182 4.98695 11.8818 4.98695 11.654 5.03915C11.3964 5.09818 11.1564 5.24961 10.6763 5.55248Z" stroke="white" stroke-width="1.3" stroke-linecap="round" stroke-linejoin="round"/>
</svg>
