<svg width="150" height="44" viewBox="0 0 150 44" fill="none" xmlns="http://www.w3.org/2000/svg">
<rect width="150" height="44" rx="9" fill="#E74C3C"/>
<path d="M21.82 27V25.376H23.29V27H21.82ZM17.788 30.472C16.976 30.472 16.248 30.3227 15.604 30.024C14.9693 29.7347 14.47 29.3287 14.106 28.806C13.742 28.2833 13.56 27.6907 13.56 27.028C13.56 26.8413 13.574 26.594 13.602 26.286C13.63 25.978 13.6673 25.6327 13.714 25.25C13.77 24.8673 13.826 24.48 13.882 24.088C13.9473 23.6867 14.008 23.2993 14.064 22.926L15.912 23.178C15.8093 23.8033 15.7207 24.3773 15.646 24.9C15.5807 25.4133 15.5293 25.852 15.492 26.216C15.4547 26.58 15.436 26.846 15.436 27.014C15.436 27.3873 15.5293 27.7093 15.716 27.98C15.9027 28.2507 16.1687 28.4607 16.514 28.61C16.8687 28.7687 17.2933 28.848 17.788 28.848C18.3013 28.848 18.7167 28.7733 19.034 28.624C19.3513 28.4747 19.58 28.2693 19.72 28.008C19.8693 27.7467 19.944 27.4527 19.944 27.126V17.102H21.82V27.126C21.82 27.798 21.6427 28.386 21.288 28.89C20.9427 29.394 20.4667 29.7813 19.86 30.052C19.2533 30.332 18.5627 30.472 17.788 30.472ZM23.29 27V25.376C23.402 25.376 23.4767 25.4507 23.514 25.6C23.5513 25.74 23.57 25.936 23.57 26.188C23.57 26.4307 23.5513 26.6267 23.514 26.776C23.4767 26.9253 23.402 27 23.29 27ZM27.3829 27V25.376H29.1329V27H27.3829ZM29.1329 27V25.376C29.2449 25.376 29.3196 25.4507 29.3569 25.6C29.3943 25.74 29.4129 25.936 29.4129 26.188C29.4129 26.4307 29.3943 26.6267 29.3569 26.776C29.3196 26.9253 29.2449 27 29.1329 27ZM23.2949 27V25.376H26.6129L25.5209 26.286V19.972H27.3829V27H23.2949ZM23.2949 27C23.1829 27 23.1083 26.9253 23.0709 26.776C23.0336 26.6267 23.0149 26.4307 23.0149 26.188C23.0149 25.936 23.0336 25.74 23.0709 25.6C23.1083 25.4507 23.1829 25.376 23.2949 25.376V27ZM23.8549 29.912V28.316H25.7309V29.912H23.8549ZM25.7729 29.912V28.316H27.6489V29.912H25.7729ZM36.3848 27V25.376H37.8688V27H36.3848ZM29.1328 27V25.376H35.1528L34.5228 25.894V23.304C34.5228 22.744 34.3455 22.3193 33.9908 22.03C33.6455 21.7407 33.0948 21.596 32.3388 21.596C32.1241 21.596 31.8301 21.6147 31.4568 21.652C31.0835 21.68 30.6775 21.7267 30.2388 21.792L30.0568 20.308C30.4581 20.2147 30.8641 20.1353 31.2748 20.07C31.6948 20.0047 32.1055 19.972 32.5068 19.972C33.2721 19.972 33.9441 20.1073 34.5228 20.378C35.1015 20.6393 35.5541 21.0173 35.8808 21.512C36.2168 22.0067 36.3848 22.604 36.3848 23.304V27H29.1328ZM29.1328 27C29.0208 27 28.9461 26.9253 28.9088 26.776C28.8715 26.6267 28.8528 26.4307 28.8528 26.188C28.8528 25.936 28.8715 25.74 28.9088 25.6C28.9461 25.4507 29.0208 25.376 29.1328 25.376V27ZM37.8688 27V25.376C37.9715 25.376 38.0415 25.4507 38.0788 25.6C38.1255 25.74 38.1488 25.936 38.1488 26.188C38.1488 26.4307 38.1255 26.6267 38.0788 26.776C38.0415 26.9253 37.9715 27 37.8688 27ZM31.8348 29.982V28.386H33.7108V29.982H31.8348ZM49.6151 27V25.376H51.0991V27H49.6151ZM46.1011 27C45.7185 27 45.3358 26.93 44.9531 26.79C44.5798 26.6407 44.2345 26.4213 43.9171 26.132L45.0651 24.942C45.2518 25.0913 45.4245 25.2033 45.5831 25.278C45.7511 25.3433 45.9238 25.376 46.1011 25.376H48.7191L47.7531 26.258V23.15C47.7531 23.0007 47.7345 22.7767 47.6971 22.478C47.6691 22.17 47.6225 21.8247 47.5571 21.442C47.5011 21.05 47.4311 20.6533 47.3471 20.252L49.1951 19.972C49.2605 20.308 49.3211 20.686 49.3771 21.106C49.4425 21.5167 49.4985 21.9087 49.5451 22.282C49.5918 22.646 49.6151 22.9353 49.6151 23.15V27H46.1011ZM37.8691 27V25.376H39.9131L39.4931 25.81V21.4H41.3691V27H37.8691ZM41.3691 27V25.376H42.5031C42.8018 25.376 43.0305 25.334 43.1891 25.25C43.3478 25.1567 43.4551 24.9747 43.5111 24.704C43.5765 24.424 43.6091 24.0087 43.6091 23.458V20.7H45.4851V23.458C45.4851 24.2887 45.3778 24.9653 45.1631 25.488C44.9578 26.0107 44.6358 26.3933 44.1971 26.636C43.7585 26.8787 43.1938 27 42.5031 27H41.3691ZM37.8691 27C37.7571 27 37.6825 26.9253 37.6451 26.776C37.6078 26.6267 37.5891 26.4307 37.5891 26.188C37.5891 25.936 37.6078 25.74 37.6451 25.6C37.6825 25.4507 37.7571 25.376 37.8691 25.376V27ZM51.0991 27V25.376C51.2111 25.376 51.2858 25.4507 51.3231 25.6C51.3605 25.74 51.3791 25.936 51.3791 26.188C51.3791 26.4307 51.3605 26.6267 51.3231 26.776C51.2858 26.9253 51.2111 27 51.0991 27ZM55.1915 27V25.376H56.9415V27H55.1915ZM56.9415 27V25.376C57.0535 25.376 57.1282 25.4507 57.1655 25.6C57.2028 25.74 57.2215 25.936 57.2215 26.188C57.2215 26.4307 57.2028 26.6267 57.1655 26.776C57.1282 26.9253 57.0535 27 56.9415 27ZM51.1035 27V25.376H54.4215L53.3295 26.286V19.972H55.1915V27H51.1035ZM51.1035 27C50.9915 27 50.9168 26.9253 50.8795 26.776C50.8422 26.6267 50.8235 26.4307 50.8235 26.188C50.8235 25.936 50.8422 25.74 50.8795 25.6C50.9168 25.4507 50.9915 25.376 51.1035 25.376V27ZM51.6635 19.132V17.536H53.5395V19.132H51.6635ZM53.5815 19.132V17.536H55.4575V19.132H53.5815ZM58.5234 27V17.102H60.3994V27H58.5234ZM56.9414 27V25.376H58.5234V27H56.9414ZM56.9414 27C56.8294 27 56.7547 26.9253 56.7174 26.776C56.6801 26.6267 56.6614 26.4307 56.6614 26.188C56.6614 25.936 56.6801 25.74 56.7174 25.6C56.7547 25.4507 56.8294 25.376 56.9414 25.376V27ZM62.6448 27V17.102H64.5068V27H62.6448ZM69.3823 27V23.822C69.3823 22.898 69.5269 22.156 69.8163 21.596C70.1056 21.0267 70.5349 20.616 71.1043 20.364C71.6736 20.1027 72.3736 19.972 73.2043 19.972C74.0443 19.972 74.7489 20.1027 75.3183 20.364C75.8876 20.616 76.3169 21.0267 76.6063 21.596C76.8956 22.156 77.0403 22.898 77.0403 23.822V27H69.3823ZM71.2583 26.216L70.3623 25.376H76.0603L75.1783 26.216V23.864C75.1783 23.304 75.1223 22.8607 75.0103 22.534C74.8983 22.198 74.6976 21.96 74.4083 21.82C74.1283 21.6707 73.7269 21.596 73.2043 21.596C72.6909 21.596 72.2896 21.6707 72.0003 21.82C71.7203 21.96 71.5243 22.198 71.4123 22.534C71.3096 22.8607 71.2583 23.304 71.2583 23.864V26.216ZM84.1236 27V19.972H85.9996V26.286L84.9076 25.376H87.7496V27H84.1236ZM81.1836 22.996V21.358H84.1236V22.996H81.1836ZM78.1316 30.472C78.0103 30.472 77.8796 30.4673 77.7396 30.458C77.5996 30.4487 77.4549 30.4347 77.3056 30.416L77.3756 28.82C77.5249 28.8293 77.6649 28.8387 77.7956 28.848C77.9356 28.8573 78.0383 28.862 78.1036 28.862C78.4676 28.862 78.7569 28.7173 78.9716 28.428C79.1956 28.1387 79.3076 27.7327 79.3076 27.21V19.972H81.1836V27.21C81.1836 27.8447 81.0529 28.4093 80.7916 28.904C80.5396 29.3987 80.1849 29.7813 79.7276 30.052C79.2703 30.332 78.7383 30.472 78.1316 30.472ZM87.7496 27V25.376C87.8523 25.376 87.9223 25.4507 87.9596 25.6C88.0063 25.74 88.0296 25.936 88.0296 26.188C88.0296 26.4307 88.0063 26.6267 87.9596 26.776C87.9223 26.9253 87.8523 27 87.7496 27ZM82.3596 19.132V17.536H84.2356V19.132H82.3596ZM84.2776 19.132V17.536H86.1536V19.132H84.2776ZM87.7441 27V25.376H94.2821L93.7081 25.866V21.19L94.1841 21.596H92.4201C92.0095 21.596 91.6875 21.6473 91.4541 21.75C91.2208 21.8527 91.0575 22.044 90.9641 22.324C90.8708 22.5947 90.8241 22.982 90.8241 23.486C90.8241 24.0367 90.8708 24.4473 90.9641 24.718C91.0575 24.9793 91.2208 25.1567 91.4541 25.25C91.6875 25.334 92.0095 25.376 92.4201 25.376V26.832C91.6268 26.832 90.9735 26.72 90.4601 26.496C89.9468 26.272 89.5641 25.9173 89.3121 25.432C89.0695 24.9373 88.9481 24.2887 88.9481 23.486C88.9481 22.7207 89.0695 22.0767 89.3121 21.554C89.5641 21.0313 89.9468 20.6393 90.4601 20.378C90.9735 20.1073 91.6268 19.972 92.4201 19.972H95.5841V27H87.7441ZM87.7441 27C87.6321 27 87.5575 26.9253 87.5201 26.776C87.4828 26.6267 87.4641 26.4307 87.4641 26.188C87.4641 25.936 87.4828 25.74 87.5201 25.6C87.5575 25.4507 87.6321 25.376 87.7441 25.376V27ZM91.6781 18.684V17.088H93.5541V18.684H91.6781ZM110.489 27V25.376H111.959V27H110.489ZM104.777 27C103.275 27 102.131 26.7107 101.347 26.132C100.563 25.544 100.171 24.676 100.171 23.528C100.171 23.304 100.185 23.0707 100.213 22.828C100.241 22.576 100.274 22.338 100.311 22.114C100.358 21.8807 100.4 21.6753 100.437 21.498C100.475 21.3207 100.503 21.19 100.521 21.106L102.341 21.456C102.313 21.6053 102.276 21.7967 102.229 22.03C102.183 22.2633 102.141 22.5107 102.103 22.772C102.066 23.024 102.047 23.2667 102.047 23.5C102.047 23.9853 102.15 24.368 102.355 24.648C102.561 24.9187 102.873 25.11 103.293 25.222C103.713 25.3247 104.241 25.376 104.875 25.376H108.613V19.972H110.489V27H104.777ZM111.959 27V25.376C112.071 25.376 112.146 25.4507 112.183 25.6C112.221 25.74 112.239 25.936 112.239 26.188C112.239 26.4307 112.221 26.6267 112.183 26.776C112.146 26.9253 112.071 27 111.959 27ZM103.363 20.49V18.894H105.239V20.49H103.363ZM105.281 20.49V18.894H107.157V20.49H105.281ZM111.957 27V25.376H119.251L118.229 26.37V23.542C118.229 23.0473 118.173 22.66 118.061 22.38C117.949 22.1 117.758 21.8993 117.487 21.778C117.216 21.6567 116.843 21.596 116.367 21.596C115.966 21.596 115.578 21.624 115.205 21.68C114.841 21.7267 114.552 21.792 114.337 21.876L115.499 20.784C115.443 20.9987 115.392 21.2693 115.345 21.596C115.298 21.9133 115.256 22.2587 115.219 22.632C115.182 23.0053 115.163 23.3647 115.163 23.71C115.163 24.046 115.177 24.3867 115.205 24.732C115.242 25.0773 115.284 25.3853 115.331 25.656C115.378 25.9267 115.41 26.1133 115.429 26.216L113.651 26.706C113.614 26.5753 113.562 26.3607 113.497 26.062C113.441 25.754 113.394 25.3993 113.357 24.998C113.32 24.5967 113.301 24.1673 113.301 23.71C113.301 23.0193 113.348 22.366 113.441 21.75C113.534 21.134 113.623 20.6673 113.707 20.35C113.922 20.266 114.267 20.182 114.743 20.098C115.228 20.014 115.76 19.972 116.339 19.972C117.59 19.972 118.528 20.2427 119.153 20.784C119.778 21.316 120.091 22.24 120.091 23.556V27H111.957ZM116.339 30.71C115.76 30.71 115.228 30.6773 114.743 30.612C114.267 30.5467 113.922 30.486 113.707 30.43C113.623 30.1873 113.534 29.8327 113.441 29.366C113.348 28.8993 113.301 28.4047 113.301 27.882C113.301 27.378 113.343 26.916 113.427 26.496C113.511 26.076 113.586 25.7867 113.651 25.628L115.387 26.216C115.359 26.2813 115.326 26.412 115.289 26.608C115.261 26.804 115.233 27.0187 115.205 27.252C115.177 27.4947 115.163 27.7093 115.163 27.896C115.163 28.1107 115.177 28.344 115.205 28.596C115.233 28.848 115.27 29.0907 115.317 29.324C115.373 29.5573 115.429 29.7533 115.485 29.912L114.281 28.862C114.486 28.9273 114.78 28.9787 115.163 29.016C115.555 29.0627 115.956 29.086 116.367 29.086C116.862 29.086 117.244 29.0487 117.515 28.974C117.786 28.9087 117.972 28.7873 118.075 28.61C118.178 28.442 118.229 28.2133 118.229 27.924V25.376H120.091V27.994C120.091 28.9927 119.778 29.6927 119.153 30.094C118.528 30.5047 117.59 30.71 116.339 30.71ZM120.091 27V25.376H121.561V27H120.091ZM121.561 27V25.376C121.673 25.376 121.748 25.4507 121.785 25.6C121.822 25.74 121.841 25.936 121.841 26.188C121.841 26.4307 121.822 26.6267 121.785 26.776C121.748 26.9253 121.673 27 121.561 27ZM111.957 27C111.845 27 111.77 26.9253 111.733 26.776C111.696 26.6267 111.677 26.4307 111.677 26.188C111.677 25.936 111.696 25.74 111.733 25.6C111.77 25.4507 111.845 25.376 111.957 25.376V27ZM125.643 27V25.376H127.393V27H125.643ZM127.393 27V25.376C127.505 25.376 127.579 25.4507 127.617 25.6C127.654 25.74 127.673 25.936 127.673 26.188C127.673 26.4307 127.654 26.6267 127.617 26.776C127.579 26.9253 127.505 27 127.393 27ZM121.555 27V25.376H124.873L123.781 26.286V19.972H125.643V27H121.555ZM121.555 27C121.443 27 121.368 26.9253 121.331 26.776C121.293 26.6267 121.275 26.4307 121.275 26.188C121.275 25.936 121.293 25.74 121.331 25.6C121.368 25.4507 121.443 25.376 121.555 25.376V27ZM122.115 19.132V17.536H123.991V19.132H122.115ZM124.033 19.132V17.536H125.909V19.132H124.033ZM127.393 27V25.376H129.955L128.863 26.286V19.972H130.739V27H127.393ZM127.393 27C127.281 27 127.206 26.9253 127.169 26.776C127.131 26.6267 127.113 26.4307 127.113 26.188C127.113 25.936 127.131 25.74 127.169 25.6C127.206 25.4507 127.281 25.376 127.393 25.376V27ZM128.863 18.684V17.088H130.739V18.684H128.863ZM133.014 27V17.102H134.876V27H133.014Z" fill="white"/>
</svg>
