<svg width="31" height="20" viewBox="0 0 31 20" fill="none" xmlns="http://www.w3.org/2000/svg">
<path d="M30.803 9.27617C30.5261 8.89733 23.9275 0 15.4999 0C7.07226 0 0.473357 8.89733 0.196717 9.27581C-0.0655725 9.63522 -0.0655725 10.1227 0.196717 10.4821C0.473357 10.8609 7.07226 19.7583 15.4999 19.7583C23.9275 19.7583 30.5261 10.8609 30.803 10.4824C31.0657 10.123 31.0657 9.63521 30.803 9.27617ZM15.4999 17.7143C9.29203 17.7143 3.9154 11.809 2.3238 9.87843C3.91334 7.9462 9.27871 2.04395 15.4999 2.04395C21.7074 2.04395 27.0837 7.94825 28.6759 9.87983C27.0864 11.812 21.721 17.7143 15.4999 17.7143Z" fill="#022561"/>
<path d="M15.4991 3.74725C12.118 3.74725 9.36719 6.49809 9.36719 9.87916C9.36719 13.2602 12.118 16.0111 15.4991 16.0111C18.8802 16.0111 21.631 13.2602 21.631 9.87916C21.631 6.49809 18.8802 3.74725 15.4991 3.74725ZM15.4991 13.967C13.2449 13.967 11.4112 12.1333 11.4112 9.87916C11.4112 7.62505 13.245 5.79126 15.4991 5.79126C17.7532 5.79126 19.587 7.62505 19.587 9.87916C19.587 12.1333 17.7533 13.967 15.4991 13.967Z" fill="#022561"/>
</svg>
