<svg width="13" height="23" viewBox="0 0 13 23" fill="none" xmlns="http://www.w3.org/2000/svg">
<path d="M9.49951 3.83333H12.4994C12.7753 3.83333 12.9993 3.61867 12.9993 3.35417V0.479167C12.9993 0.214667 12.7753 0 12.4994 0H9.49951C6.46767 0 3.99979 2.36421 3.99979 5.27083V8.625H0.499974C0.223988 8.625 0 8.83967 0 9.10417V11.9792C0 12.2437 0.223988 12.4583 0.499974 12.4583H3.99979V22.5208C3.99979 22.7853 4.22378 23 4.49977 23H7.49961C7.7756 23 7.99959 22.7853 7.99959 22.5208V12.4583H11.4994C11.7144 12.4583 11.9054 12.3261 11.9744 12.1306L12.9743 9.25558C13.0253 9.10992 12.9993 8.94892 12.9053 8.82337C12.8103 8.69879 12.6603 8.625 12.4994 8.625H7.99959V5.27083C7.99959 4.47829 8.67255 3.83333 9.49951 3.83333Z" fill="white"/>
</svg>
