<svg width="187" height="56" viewBox="0 0 187 56" fill="none" xmlns="http://www.w3.org/2000/svg">
<g filter="url(#filter0_b_53_1453)">
<rect width="187" height="56" rx="20" fill="white" fill-opacity="0.8"/>
</g>
<path d="M44.28 24V22.48L47.928 18.592C48.4187 18.0587 48.7707 17.5893 48.984 17.184C49.1973 16.768 49.304 16.3467 49.304 15.92C49.304 14.832 48.648 14.288 47.336 14.288C46.312 14.288 45.368 14.672 44.504 15.44L43.816 13.904C44.264 13.4987 44.824 13.1733 45.496 12.928C46.168 12.6827 46.8667 12.56 47.592 12.56C48.7973 12.56 49.72 12.832 50.36 13.376C51.0107 13.92 51.336 14.6987 51.336 15.712C51.336 16.3947 51.1707 17.0507 50.84 17.68C50.52 18.3093 50.0133 18.9867 49.32 19.712L46.84 22.304H51.768V24H44.28ZM57.8098 24.16C57.0738 24.16 56.3591 24.048 55.6657 23.824C54.9724 23.5893 54.4071 23.2747 53.9697 22.88L54.6417 21.312C55.6124 22.0587 56.6577 22.432 57.7778 22.432C58.4497 22.432 58.9724 22.2613 59.3457 21.92C59.7297 21.568 59.9218 21.0987 59.9218 20.512C59.9218 19.9147 59.7404 19.4347 59.3777 19.072C59.0151 18.6987 58.5191 18.512 57.8898 18.512C56.9937 18.512 56.2524 18.8693 55.6657 19.584H54.2897V12.72H61.2178V14.416H56.2897V17.472C56.8551 17.0453 57.5484 16.832 58.3698 16.832C59.0844 16.832 59.7031 16.9867 60.2257 17.296C60.7591 17.5947 61.1698 18.016 61.4578 18.56C61.7564 19.0933 61.9058 19.7173 61.9058 20.432C61.9058 21.168 61.7404 21.8187 61.4097 22.384C61.0791 22.9387 60.6044 23.376 59.9858 23.696C59.3778 24.0053 58.6524 24.16 57.8098 24.16ZM67.6275 24.16C66.2942 24.16 65.2755 23.6587 64.5715 22.656C63.8675 21.6427 63.5155 20.2027 63.5155 18.336C63.5155 16.448 63.8675 15.0133 64.5715 14.032C65.2755 13.0507 66.2942 12.56 67.6275 12.56C68.9715 12.56 69.9902 13.0507 70.6835 14.032C71.3875 15.0133 71.7395 16.4427 71.7395 18.32C71.7395 20.1973 71.3875 21.6427 70.6835 22.656C69.9795 23.6587 68.9608 24.16 67.6275 24.16ZM67.6275 22.48C68.3528 22.48 68.8862 22.1493 69.2275 21.488C69.5795 20.816 69.7555 19.76 69.7555 18.32C69.7555 16.8907 69.5795 15.856 69.2275 15.216C68.8862 14.5653 68.3528 14.24 67.6275 14.24C66.9128 14.24 66.3795 14.5653 66.0275 15.216C65.6755 15.856 65.4995 16.8907 65.4995 18.32C65.4995 19.76 65.6755 20.816 66.0275 21.488C66.3795 22.1493 66.9128 22.48 67.6275 22.48ZM73.7812 24V12.72H75.7812V19.504H75.8132L78.9652 16.176H81.3812L77.8292 19.92L81.6052 24H79.1572L75.8132 20.512H75.7812V24H73.7812Z" fill="#595959"/>
<path d="M43.176 44L48.2 32.72H49.576L54.616 44H52.92L51.736 41.248H46.024L44.856 44H43.176ZM48.872 34.56L46.616 39.904H51.176L48.904 34.56H48.872ZM58.8639 44.144C58.2239 44.144 57.6265 44.064 57.0719 43.904C56.5172 43.7333 56.0532 43.4987 55.6799 43.2L56.1439 42.112C56.5385 42.3893 56.9705 42.6027 57.4399 42.752C57.9199 42.9013 58.3999 42.976 58.8799 42.976C59.4452 42.976 59.8719 42.8747 60.1599 42.672C60.4479 42.4693 60.5919 42.1973 60.5919 41.856C60.5919 41.5787 60.4959 41.3653 60.3039 41.216C60.1119 41.056 59.8239 40.9333 59.4399 40.848L57.9199 40.544C56.5759 40.2667 55.9039 39.5733 55.9039 38.464C55.9039 37.728 56.1972 37.1413 56.7839 36.704C57.3705 36.2667 58.1385 36.048 59.0879 36.048C59.6319 36.048 60.1492 36.128 60.6399 36.288C61.1412 36.448 61.5572 36.688 61.8879 37.008L61.4239 38.096C61.1039 37.8187 60.7359 37.6053 60.3199 37.456C59.9039 37.3067 59.4932 37.232 59.0879 37.232C58.5332 37.232 58.1119 37.3387 57.8239 37.552C57.5359 37.7547 57.3919 38.032 57.3919 38.384C57.3919 38.9173 57.7439 39.2587 58.4479 39.408L59.9679 39.712C60.6612 39.8507 61.1839 40.0853 61.5359 40.416C61.8985 40.7467 62.0799 41.1947 62.0799 41.76C62.0799 42.5067 61.7865 43.0933 61.1999 43.52C60.6132 43.936 59.8345 44.144 58.8639 44.144ZM66.9339 44.144C66.2939 44.144 65.6965 44.064 65.1419 43.904C64.5872 43.7333 64.1232 43.4987 63.7499 43.2L64.2139 42.112C64.6085 42.3893 65.0405 42.6027 65.5099 42.752C65.9899 42.9013 66.4699 42.976 66.9499 42.976C67.5152 42.976 67.9419 42.8747 68.2299 42.672C68.5179 42.4693 68.6619 42.1973 68.6619 41.856C68.6619 41.5787 68.5659 41.3653 68.3739 41.216C68.1819 41.056 67.8939 40.9333 67.5099 40.848L65.9899 40.544C64.6459 40.2667 63.9739 39.5733 63.9739 38.464C63.9739 37.728 64.2672 37.1413 64.8539 36.704C65.4405 36.2667 66.2085 36.048 67.1579 36.048C67.7019 36.048 68.2192 36.128 68.7099 36.288C69.2112 36.448 69.6272 36.688 69.9579 37.008L69.4939 38.096C69.1739 37.8187 68.8059 37.6053 68.3899 37.456C67.9739 37.3067 67.5632 37.232 67.1579 37.232C66.6032 37.232 66.1819 37.3387 65.8939 37.552C65.6059 37.7547 65.4619 38.032 65.4619 38.384C65.4619 38.9173 65.8139 39.2587 66.5179 39.408L68.0379 39.712C68.7312 39.8507 69.2539 40.0853 69.6059 40.416C69.9685 40.7467 70.1499 41.1947 70.1499 41.76C70.1499 42.5067 69.8565 43.0933 69.2699 43.52C68.6832 43.936 67.9045 44.144 66.9339 44.144ZM72.1239 34.384V32.704H74.0119V34.384H72.1239ZM72.2679 44V36.192H73.8839V44H72.2679ZM79.2145 44.144C78.5745 44.144 77.9772 44.064 77.4225 43.904C76.8678 43.7333 76.4038 43.4987 76.0305 43.2L76.4945 42.112C76.8892 42.3893 77.3212 42.6027 77.7905 42.752C78.2705 42.9013 78.7505 42.976 79.2305 42.976C79.7958 42.976 80.2225 42.8747 80.5105 42.672C80.7985 42.4693 80.9425 42.1973 80.9425 41.856C80.9425 41.5787 80.8465 41.3653 80.6545 41.216C80.4625 41.056 80.1745 40.9333 79.7905 40.848L78.2705 40.544C76.9265 40.2667 76.2545 39.5733 76.2545 38.464C76.2545 37.728 76.5478 37.1413 77.1345 36.704C77.7212 36.2667 78.4892 36.048 79.4385 36.048C79.9825 36.048 80.4998 36.128 80.9905 36.288C81.4918 36.448 81.9078 36.688 82.2385 37.008L81.7745 38.096C81.4545 37.8187 81.0865 37.6053 80.6705 37.456C80.2545 37.3067 79.8438 37.232 79.4385 37.232C78.8838 37.232 78.4625 37.3387 78.1745 37.552C77.8865 37.7547 77.7425 38.032 77.7425 38.384C77.7425 38.9173 78.0945 39.2587 78.7985 39.408L80.3185 39.712C81.0118 39.8507 81.5345 40.0853 81.8865 40.416C82.2492 40.7467 82.4305 41.1947 82.4305 41.76C82.4305 42.5067 82.1372 43.0933 81.5505 43.52C80.9638 43.936 80.1852 44.144 79.2145 44.144ZM87.7984 44.144C86.817 44.144 86.0864 43.8933 85.6064 43.392C85.1264 42.8907 84.8864 42.1653 84.8864 41.216V37.44H83.3664V36.192H84.8864V33.84H86.5024V36.192H88.9184V37.44H86.5024V41.088C86.5024 41.6533 86.6197 42.08 86.8544 42.368C87.0997 42.656 87.4944 42.8 88.0384 42.8C88.209 42.8 88.3744 42.784 88.5344 42.752C88.6944 42.7093 88.8544 42.6613 89.0144 42.608L89.2704 43.824C89.1104 43.92 88.8864 43.9947 88.5984 44.048C88.321 44.112 88.0544 44.144 87.7984 44.144ZM94.22 44.144C92.94 44.144 91.932 43.7867 91.196 43.072C90.46 42.3467 90.092 41.36 90.092 40.112C90.092 39.312 90.252 38.608 90.572 38C90.9027 37.3813 91.356 36.9013 91.932 36.56C92.508 36.2187 93.1693 36.048 93.916 36.048C94.9933 36.048 95.8413 36.3947 96.46 37.088C97.0787 37.7707 97.388 38.7147 97.388 39.92V40.464H91.66C91.7773 42.0853 92.636 42.896 94.236 42.896C94.684 42.896 95.1213 42.8267 95.548 42.688C95.9853 42.5493 96.396 42.32 96.78 42L97.26 43.12C96.908 43.44 96.4547 43.6907 95.9 43.872C95.3453 44.0533 94.7853 44.144 94.22 44.144ZM93.98 37.184C93.308 37.184 92.7747 37.392 92.38 37.808C91.9853 38.224 91.7453 38.7787 91.66 39.472H96.028C95.996 38.7467 95.804 38.1867 95.452 37.792C95.1 37.3867 94.6093 37.184 93.98 37.184ZM102.446 44.144C101.763 44.144 101.16 43.984 100.638 43.664C100.126 43.3333 99.7258 42.864 99.4378 42.256C99.1498 41.648 99.0058 40.928 99.0058 40.096C99.0058 39.264 99.1498 38.5493 99.4378 37.952C99.7258 37.344 100.126 36.8747 100.638 36.544C101.15 36.2133 101.752 36.048 102.446 36.048C103.032 36.048 103.555 36.176 104.014 36.432C104.472 36.688 104.814 37.0347 105.038 37.472V32.72H106.654V44H105.07V42.64C104.846 43.1093 104.499 43.4773 104.03 43.744C103.571 44.0107 103.043 44.144 102.446 44.144ZM102.862 42.896C103.523 42.896 104.056 42.656 104.462 42.176C104.867 41.696 105.07 41.0027 105.07 40.096C105.07 39.1893 104.867 38.5013 104.462 38.032C104.056 37.552 103.523 37.312 102.862 37.312C102.19 37.312 101.651 37.552 101.246 38.032C100.84 38.5013 100.638 39.1893 100.638 40.096C100.638 41.0027 100.84 41.696 101.246 42.176C101.651 42.656 102.19 42.896 102.862 42.896ZM117.702 44.144C116.817 44.144 116.006 44.032 115.27 43.808C114.534 43.5733 113.91 43.248 113.398 42.832L113.926 41.52C114.459 41.9253 115.03 42.2293 115.638 42.432C116.246 42.6347 116.934 42.736 117.702 42.736C118.609 42.736 119.275 42.576 119.702 42.256C120.139 41.9253 120.358 41.4987 120.358 40.976C120.358 40.5493 120.203 40.2133 119.894 39.968C119.585 39.712 119.067 39.5093 118.342 39.36L116.63 39.008C115.617 38.7947 114.859 38.4427 114.358 37.952C113.867 37.4613 113.622 36.8 113.622 35.968C113.622 35.296 113.798 34.704 114.15 34.192C114.513 33.68 115.014 33.2853 115.654 33.008C116.294 32.72 117.03 32.576 117.862 32.576C118.63 32.576 119.339 32.6933 119.99 32.928C120.651 33.152 121.211 33.4827 121.67 33.92L121.126 35.184C120.219 34.384 119.126 33.984 117.846 33.984C117.057 33.984 116.427 34.16 115.958 34.512C115.499 34.864 115.27 35.3333 115.27 35.92C115.27 36.368 115.414 36.7253 115.702 36.992C115.99 37.2587 116.47 37.4613 117.142 37.6L118.838 37.952C119.905 38.176 120.699 38.5227 121.222 38.992C121.745 39.4507 122.006 40.0747 122.006 40.864C122.006 41.5253 121.83 42.1013 121.478 42.592C121.126 43.0827 120.63 43.4667 119.99 43.744C119.35 44.0107 118.587 44.144 117.702 44.144ZM127.32 44.144C126.339 44.144 125.608 43.8933 125.128 43.392C124.648 42.8907 124.408 42.1653 124.408 41.216V37.44H122.888V36.192H124.408V33.84H126.024V36.192H128.44V37.44H126.024V41.088C126.024 41.6533 126.142 42.08 126.376 42.368C126.622 42.656 127.016 42.8 127.56 42.8C127.731 42.8 127.896 42.784 128.056 42.752C128.216 42.7093 128.376 42.6613 128.536 42.608L128.792 43.824C128.632 43.92 128.408 43.9947 128.12 44.048C127.843 44.112 127.576 44.144 127.32 44.144ZM132.94 44.144C131.052 44.144 130.108 43.0933 130.108 40.992V36.192H131.724V41.008C131.724 41.6373 131.852 42.1013 132.108 42.4C132.364 42.6987 132.769 42.848 133.324 42.848C133.932 42.848 134.423 42.6453 134.796 42.24C135.18 41.8347 135.372 41.2907 135.372 40.608V36.192H136.988V44H135.42V42.752C135.164 43.2107 134.823 43.5573 134.396 43.792C133.969 44.0267 133.484 44.144 132.94 44.144ZM142.561 44.144C141.879 44.144 141.276 43.984 140.753 43.664C140.241 43.3333 139.841 42.864 139.553 42.256C139.265 41.648 139.121 40.928 139.121 40.096C139.121 39.264 139.265 38.5493 139.553 37.952C139.841 37.344 140.241 36.8747 140.753 36.544C141.265 36.2133 141.868 36.048 142.561 36.048C143.148 36.048 143.671 36.176 144.129 36.432C144.588 36.688 144.929 37.0347 145.153 37.472V32.72H146.769V44H145.185V42.64C144.961 43.1093 144.615 43.4773 144.145 43.744C143.687 44.0107 143.159 44.144 142.561 44.144ZM142.977 42.896C143.639 42.896 144.172 42.656 144.577 42.176C144.983 41.696 145.185 41.0027 145.185 40.096C145.185 39.1893 144.983 38.5013 144.577 38.032C144.172 37.552 143.639 37.312 142.977 37.312C142.305 37.312 141.767 37.552 141.361 38.032C140.956 38.5013 140.753 39.1893 140.753 40.096C140.753 41.0027 140.956 41.696 141.361 42.176C141.767 42.656 142.305 42.896 142.977 42.896ZM153.023 44.144C151.743 44.144 150.735 43.7867 149.999 43.072C149.263 42.3467 148.895 41.36 148.895 40.112C148.895 39.312 149.055 38.608 149.375 38C149.705 37.3813 150.159 36.9013 150.735 36.56C151.311 36.2187 151.972 36.048 152.719 36.048C153.796 36.048 154.644 36.3947 155.263 37.088C155.881 37.7707 156.191 38.7147 156.191 39.92V40.464H150.463C150.58 42.0853 151.439 42.896 153.039 42.896C153.487 42.896 153.924 42.8267 154.351 42.688C154.788 42.5493 155.199 42.32 155.583 42L156.063 43.12C155.711 43.44 155.257 43.6907 154.703 43.872C154.148 44.0533 153.588 44.144 153.023 44.144ZM152.783 37.184C152.111 37.184 151.577 37.392 151.183 37.808C150.788 38.224 150.548 38.7787 150.463 39.472H154.831C154.799 38.7467 154.607 38.1867 154.255 37.792C153.903 37.3867 153.412 37.184 152.783 37.184ZM158.272 44V36.192H159.84V37.488C160.107 37.0187 160.47 36.6613 160.928 36.416C161.398 36.1707 161.92 36.048 162.496 36.048C164.342 36.048 165.264 37.0933 165.264 39.184V44H163.648V39.28C163.648 38.608 163.515 38.1173 163.248 37.808C162.992 37.4987 162.587 37.344 162.032 37.344C161.382 37.344 160.859 37.552 160.464 37.968C160.08 38.3733 159.888 38.912 159.888 39.584V44H158.272ZM171.139 44.144C170.158 44.144 169.427 43.8933 168.947 43.392C168.467 42.8907 168.227 42.1653 168.227 41.216V37.44H166.707V36.192H168.227V33.84H169.843V36.192H172.259V37.44H169.843V41.088C169.843 41.6533 169.96 42.08 170.195 42.368C170.44 42.656 170.835 42.8 171.379 42.8C171.55 42.8 171.715 42.784 171.875 42.752C172.035 42.7093 172.195 42.6613 172.355 42.608L172.611 43.824C172.451 43.92 172.227 43.9947 171.939 44.048C171.662 44.112 171.395 44.144 171.139 44.144Z" fill="#545567"/>
<rect x="11" y="14.0833" width="28.1667" height="28.1667" rx="8" fill="#23BDEE"/>
<g clip-path="url(#clip0_53_1453)">
<path d="M21.2104 20.4208C20.9048 20.4208 20.6571 20.6685 20.6571 20.9741V22.0807H21.7637V20.9741C21.7637 20.6685 21.516 20.4208 21.2104 20.4208Z" fill="white"/>
<path d="M28.9562 20.4208C28.6507 20.4208 28.403 20.6685 28.403 20.9741V22.0807H29.5095V20.9741C29.5095 20.6685 29.2618 20.4208 28.9562 20.4208Z" fill="white"/>
<path d="M31.1693 22.0807H29.5095V24.2938C29.5095 24.5993 29.2618 24.847 28.9562 24.847C28.6507 24.847 28.403 24.5993 28.403 24.2938V22.0807H21.7637V24.2938C21.7637 24.5993 21.516 24.847 21.2104 24.847C20.9048 24.847 20.6571 24.5993 20.6571 24.2938V22.0807H18.9973C18.0806 22.0807 17.3375 22.8238 17.3375 23.7405V34.2527C17.3375 35.1694 18.0806 35.9125 18.9973 35.9125H31.1693C32.086 35.9125 32.8292 35.1694 32.8292 34.2527V23.7405C32.8292 22.8238 32.086 22.0807 31.1693 22.0807ZM31.7226 34.2527C31.7226 34.5583 31.4749 34.806 31.1693 34.806H18.9973C18.6917 34.806 18.444 34.5583 18.444 34.2527V27.0601H31.7226V34.2527Z" fill="white"/>
<path d="M21.7637 28.1667H20.6571C20.3516 28.1667 20.1039 28.4144 20.1039 28.7199C20.1039 29.0255 20.3516 29.2732 20.6571 29.2732H21.7637C22.0693 29.2732 22.317 29.0255 22.317 28.7199C22.317 28.4144 22.0693 28.1667 21.7637 28.1667Z" fill="white"/>
<path d="M25.6366 28.1667H24.5301C24.2245 28.1667 23.9768 28.4144 23.9768 28.7199C23.9768 29.0255 24.2245 29.2732 24.5301 29.2732H25.6366C25.9422 29.2732 26.1899 29.0255 26.1899 28.7199C26.1899 28.4144 25.9422 28.1667 25.6366 28.1667Z" fill="white"/>
<path d="M29.5095 28.1667H28.403C28.0974 28.1667 27.8497 28.4144 27.8497 28.7199C27.8497 29.0255 28.0974 29.2732 28.403 29.2732H29.5095C29.8151 29.2732 30.0628 29.0255 30.0628 28.7199C30.0628 28.4144 29.8151 28.1667 29.5095 28.1667Z" fill="white"/>
<path d="M21.7637 30.3798H20.6571C20.3516 30.3798 20.1039 30.6275 20.1039 30.933C20.1039 31.2386 20.3516 31.4863 20.6571 31.4863H21.7637C22.0693 31.4863 22.317 31.2386 22.317 30.933C22.317 30.6275 22.0693 30.3798 21.7637 30.3798Z" fill="white"/>
<path d="M25.6366 30.3798H24.5301C24.2245 30.3798 23.9768 30.6275 23.9768 30.933C23.9768 31.2386 24.2245 31.4863 24.5301 31.4863H25.6366C25.9422 31.4863 26.1899 31.2386 26.1899 30.933C26.1899 30.6275 25.9422 30.3798 25.6366 30.3798Z" fill="white"/>
<path d="M29.5095 30.3798H28.403C28.0974 30.3798 27.8497 30.6275 27.8497 30.933C27.8497 31.2386 28.0974 31.4863 28.403 31.4863H29.5095C29.8151 31.4863 30.0628 31.2386 30.0628 30.933C30.0628 30.6275 29.8151 30.3798 29.5095 30.3798Z" fill="white"/>
<path d="M21.7637 32.5928H20.6571C20.3516 32.5928 20.1039 32.8406 20.1039 33.1461C20.1039 33.4517 20.3516 33.6994 20.6571 33.6994H21.7637C22.0693 33.6994 22.317 33.4517 22.317 33.1461C22.317 32.8405 22.0693 32.5928 21.7637 32.5928Z" fill="white"/>
<path d="M25.6366 32.5928H24.5301C24.2245 32.5928 23.9768 32.8406 23.9768 33.1461C23.9768 33.4517 24.2245 33.6994 24.5301 33.6994H25.6366C25.9422 33.6994 26.1899 33.4517 26.1899 33.1461C26.1899 32.8406 25.9422 32.5928 25.6366 32.5928Z" fill="white"/>
<path d="M29.5095 32.5928H28.403C28.0974 32.5928 27.8497 32.8406 27.8497 33.1461C27.8497 33.4517 28.0974 33.6994 28.403 33.6994H29.5095C29.8151 33.6994 30.0628 33.4517 30.0628 33.1461C30.0628 32.8406 29.8151 32.5928 29.5095 32.5928Z" fill="white"/>
</g>
<defs>
<filter id="filter0_b_53_1453" x="-20" y="-20" width="227" height="96" filterUnits="userSpaceOnUse" color-interpolation-filters="sRGB">
<feFlood flood-opacity="0" result="BackgroundImageFix"/>
<feGaussianBlur in="BackgroundImageFix" stdDeviation="10"/>
<feComposite in2="SourceAlpha" operator="in" result="effect1_backgroundBlur_53_1453"/>
<feBlend mode="normal" in="SourceGraphic" in2="effect1_backgroundBlur_53_1453" result="shape"/>
</filter>
<clipPath id="clip0_53_1453">
<rect width="15.4917" height="15.4917" fill="white" transform="translate(17.3375 20.4208)"/>
</clipPath>
</defs>
</svg>
