<svg width="20" height="20" viewBox="0 0 20 20" fill="none" xmlns="http://www.w3.org/2000/svg">
<path d="M18.55 8.82915C18.5495 8.82874 18.5491 8.82819 18.5487 8.82777L11.2061 1.48546C10.8931 1.17235 10.477 1 10.0344 1C9.59175 1 9.17565 1.17235 8.86254 1.48546L1.52379 8.82407C1.52132 8.82654 1.51871 8.82915 1.51638 8.83162C0.873675 9.47803 0.874774 10.5268 1.51954 11.1716C1.81411 11.4663 2.20302 11.6368 2.61899 11.6548C2.63602 11.6565 2.65305 11.6573 2.67022 11.6573H2.96273V17.0607C2.96273 18.1301 3.83285 19 4.90223 19H7.77489C8.06616 19 8.30223 18.7638 8.30223 18.4727V14.2364C8.30223 13.7484 8.69925 13.3515 9.18718 13.3515H10.8816C11.3695 13.3515 11.7664 13.7484 11.7664 14.2364V18.4727C11.7664 18.7638 12.0024 19 12.2937 19H15.1664C16.2359 19 17.1059 18.1301 17.1059 17.0607V11.6573H17.3772C17.8197 11.6573 18.2358 11.485 18.5491 11.1717C19.1945 10.526 19.1948 9.47528 18.55 8.82915ZM17.8032 10.426C17.6894 10.5399 17.538 10.6026 17.3772 10.6026H16.5785C16.2872 10.6026 16.0512 10.8387 16.0512 11.13V17.0607C16.0512 17.5485 15.6543 17.9453 15.1664 17.9453H12.8211V14.2364C12.8211 13.167 11.9511 12.2969 10.8816 12.2969H9.18718C8.11766 12.2969 7.24754 13.167 7.24754 14.2364V17.9453H4.90223C4.41444 17.9453 4.01742 17.5485 4.01742 17.0607V11.13C4.01742 10.8387 3.78135 10.6026 3.49007 10.6026H2.7051C2.69686 10.6021 2.68876 10.6017 2.68038 10.6015C2.52328 10.5988 2.37592 10.5364 2.26551 10.4259C2.03068 10.191 2.03068 9.80886 2.26551 9.57388C2.26565 9.57388 2.26565 9.57375 2.26578 9.57361L2.2662 9.5732L9.60851 2.23116C9.72222 2.11731 9.87342 2.05469 10.0344 2.05469C10.1952 2.05469 10.3464 2.11731 10.4602 2.23116L17.8009 9.57169C17.802 9.57279 17.8032 9.57388 17.8043 9.57498C18.0379 9.81023 18.0375 10.1916 17.8032 10.426Z" fill="#2C2D30" stroke="#2C2D30" stroke-width="0.5"/>
</svg>
