<svg width="24" height="24" viewBox="0 0 24 24" fill="none" xmlns="http://www.w3.org/2000/svg">
<rect x="4" y="4" width="15" height="15" fill="#022561"/>
<path d="M22.125 0H1.875C0.839062 0 0 0.839062 0 1.875V22.125C0 23.1609 0.839062 24 1.875 24H22.125C23.1609 24 24 23.1609 24 22.125V1.875C24 0.839062 23.1609 0 22.125 0ZM16.7906 10.1344C16.7953 10.2375 16.7953 10.3453 16.7953 10.4531C16.7953 13.7109 14.3156 17.4703 9.77813 17.4703C8.38594 17.4703 7.0875 17.0625 6 16.3641C6.19219 16.3875 6.38906 16.3969 6.59063 16.3969C7.74375 16.3969 8.80781 16.0031 9.65156 15.3422C8.57344 15.3234 7.65938 14.6109 7.35 13.6312C7.5 13.6594 7.65469 13.6734 7.81406 13.6734C8.03906 13.6734 8.25938 13.6453 8.46563 13.5844C7.33594 13.3594 6.4875 12.3609 6.4875 11.1656V11.1375C6.82031 11.3203 7.2 11.4328 7.60312 11.4469C6.94219 11.0063 6.50625 10.2469 6.50625 9.39375C6.50625 8.94375 6.62812 8.51719 6.83906 8.15156C8.05781 9.64687 9.87187 10.6266 11.9203 10.7297C11.8781 10.5516 11.8547 10.3641 11.8547 10.1672C11.8547 8.80781 12.9609 7.70156 14.3203 7.70156C15.0281 7.70156 15.6703 8.00156 16.1203 8.47969C16.6828 8.36719 17.2078 8.16563 17.6859 7.87969C17.5031 8.45625 17.1094 8.93906 16.6031 9.24375C17.1 9.18281 17.5781 9.05156 18.0187 8.85469C17.6906 9.35156 17.2734 9.78281 16.7906 10.1344Z" fill="#022561"/>
<path d="M15.2799 7.86783C15.1118 7.86783 14.9474 7.91768 14.8077 8.01108C14.6679 8.10448 14.5589 8.23723 14.4946 8.39254C14.4303 8.54786 14.4134 8.71877 14.4462 8.88365C14.479 9.04854 14.56 9.19999 14.6789 9.31887C14.7977 9.43774 14.9492 9.5187 15.1141 9.55149C15.279 9.58429 15.4499 9.56746 15.6052 9.50312C15.7605 9.43879 15.8932 9.32984 15.9866 9.19006C16.08 9.05028 16.1299 8.88594 16.1299 8.71783C16.1299 8.49239 16.0403 8.27619 15.8809 8.11678C15.7215 7.95738 15.5053 7.86783 15.2799 7.86783ZM18.5382 9.58199C18.5245 8.99429 18.4144 8.41282 18.2124 7.86074C18.0323 7.38838 17.752 6.96065 17.3907 6.60699C17.04 6.24392 16.6112 5.96537 16.137 5.79241C15.5864 5.58427 15.0042 5.47168 14.4157 5.45949C13.6649 5.41699 13.4241 5.41699 11.4974 5.41699C9.57073 5.41699 9.3299 5.41699 8.57906 5.45949C7.99055 5.47168 7.40843 5.58427 6.85781 5.79241C6.38442 5.96712 5.95606 6.24543 5.60406 6.60699C5.24099 6.95774 4.96244 7.38647 4.78948 7.86074C4.58134 8.41136 4.46875 8.99348 4.45656 9.58199C4.41406 10.3328 4.41406 10.5737 4.41406 12.5003C4.41406 14.427 4.41406 14.6678 4.45656 15.4187C4.46875 16.0072 4.58134 16.5893 4.78948 17.1399C4.96244 17.6142 5.24099 18.0429 5.60406 18.3937C5.95606 18.7552 6.38442 19.0335 6.85781 19.2082C7.40843 19.4164 7.99055 19.529 8.57906 19.5412C9.3299 19.5837 9.57073 19.5837 11.4974 19.5837C13.4241 19.5837 13.6649 19.5837 14.4157 19.5412C15.0042 19.529 15.5864 19.4164 16.137 19.2082C16.6112 19.0353 17.04 18.7567 17.3907 18.3937C17.7536 18.0413 18.0341 17.6132 18.2124 17.1399C18.4144 16.5878 18.5245 16.0064 18.5382 15.4187C18.5382 14.6678 18.5807 14.427 18.5807 12.5003C18.5807 10.5737 18.5807 10.3328 18.5382 9.58199ZM17.2632 15.3337C17.2581 15.7833 17.1766 16.2288 17.0224 16.6512C16.9093 16.9594 16.7276 17.238 16.4911 17.4657C16.2614 17.6999 15.9834 17.8811 15.6766 17.997C15.2542 18.1512 14.8087 18.2327 14.3591 18.2378C13.6507 18.2732 13.3886 18.2803 11.5257 18.2803C9.66281 18.2803 9.40073 18.2803 8.6924 18.2378C8.22553 18.2466 7.76065 18.1747 7.31823 18.0253C7.02482 17.9035 6.75961 17.7227 6.53906 17.4941C6.30396 17.2665 6.12458 16.9878 6.0149 16.6795C5.84196 16.2511 5.74604 15.7955 5.73156 15.3337C5.73156 14.6253 5.68906 14.3632 5.68906 12.5003C5.68906 10.6374 5.68906 10.3753 5.73156 9.66699C5.73474 9.20732 5.81865 8.75179 5.97948 8.32116C6.10418 8.02218 6.29558 7.75567 6.53906 7.54199C6.75426 7.29844 7.02022 7.10502 7.31823 6.97533C7.74999 6.81952 8.20506 6.73809 8.66406 6.73449C9.3724 6.73449 9.63448 6.69199 11.4974 6.69199C13.3603 6.69199 13.6224 6.69199 14.3307 6.73449C14.7804 6.73965 15.2259 6.82108 15.6482 6.97533C15.9701 7.09479 16.259 7.28901 16.4911 7.54199C16.7233 7.75958 16.9046 8.02559 17.0224 8.32116C17.1798 8.75249 17.2613 9.20784 17.2632 9.66699C17.2986 10.3753 17.3057 10.6374 17.3057 12.5003C17.3057 14.3632 17.2986 14.6253 17.2632 15.3337ZM11.4974 8.86658C10.779 8.86798 10.0772 9.08228 9.48053 9.48241C8.88389 9.88254 8.41925 10.4505 8.1453 11.1147C7.87136 11.7788 7.80041 12.5092 7.94142 13.2136C8.08242 13.918 8.42906 14.5648 8.93753 15.0723C9.446 15.5797 10.0935 15.9251 10.7982 16.0648C11.5029 16.2044 12.2331 16.132 12.8967 15.8568C13.5603 15.5816 14.1274 15.1158 14.5263 14.5184C14.9253 13.921 15.1382 13.2187 15.1382 12.5003C15.1392 12.0223 15.0456 11.5488 14.8629 11.107C14.6801 10.6653 14.4119 10.264 14.0735 9.92628C13.7351 9.58857 13.3334 9.3211 12.8913 9.13923C12.4491 8.95737 11.9754 8.86471 11.4974 8.86658ZM11.4974 14.8591C11.0309 14.8591 10.5748 14.7207 10.1869 14.4616C9.79905 14.2024 9.49672 13.834 9.31819 13.403C9.13967 12.972 9.09296 12.4977 9.18397 12.0402C9.27498 11.5826 9.49963 11.1623 9.82951 10.8324C10.1594 10.5026 10.5797 10.2779 11.0372 10.1869C11.4948 10.0959 11.969 10.1426 12.4001 10.3211C12.8311 10.4997 13.1994 10.802 13.4586 11.1899C13.7178 11.5778 13.8561 12.0338 13.8561 12.5003C13.8561 12.8101 13.7951 13.1168 13.6766 13.403C13.5581 13.6892 13.3843 13.9492 13.1653 14.1682C12.9463 14.3872 12.6862 14.561 12.4001 14.6795C12.1139 14.7981 11.8072 14.8591 11.4974 14.8591Z" fill="white"/>
</svg>
