<svg width="19" height="19" viewBox="0 0 19 19" fill="none" xmlns="http://www.w3.org/2000/svg">
<path d="M2.37472 4.74944C3.68624 4.74944 4.74944 3.68624 4.74944 2.37472C4.74944 1.0632 3.68624 0 2.37472 0C1.0632 0 0 1.0632 0 2.37472C0 3.68624 1.0632 4.74944 2.37472 4.74944Z" fill="white"/>
<path d="M4.35366 6.33557H0.395787C0.177313 6.33557 0 6.51288 0 6.73136V18.605C0 18.8234 0.177313 19.0008 0.395787 19.0008H4.35366C4.57213 19.0008 4.74944 18.8234 4.74944 18.605V6.73136C4.74944 6.51288 4.57213 6.33557 4.35366 6.33557Z" fill="white"/>
<path d="M16.1481 5.67726C14.4565 5.09782 12.3406 5.60681 11.0717 6.51949C11.0282 6.3493 10.8731 6.22265 10.6886 6.22265H6.73075C6.51227 6.22265 6.33496 6.39996 6.33496 6.61844V18.492C6.33496 18.7105 6.51227 18.8878 6.73075 18.8878H10.6886C10.9071 18.8878 11.0844 18.7105 11.0844 18.492V9.95888C11.724 9.40794 12.548 9.23221 13.2224 9.51876C13.8763 9.79502 14.2507 10.4694 14.2507 11.3679V18.492C14.2507 18.7105 14.428 18.8878 14.6465 18.8878H18.6044C18.8228 18.8878 19.0001 18.7105 19.0001 18.492V10.5708C18.955 7.31819 17.4249 6.11421 16.1481 5.67726Z" fill="white"/>
</svg>
