<svg width="19" height="17" viewBox="0 0 19 17" fill="none" xmlns="http://www.w3.org/2000/svg">
<path d="M2.47931 7.65259H17.2608C17.4568 7.65259 17.6448 7.73045 17.7834 7.86906C17.922 8.00766 17.9998 8.19565 17.9998 8.39166C17.9998 8.58767 17.922 8.77566 17.7834 8.91426C17.6448 9.05287 17.4568 9.13073 17.2608 9.13073H2.47931C2.28329 9.13073 2.09531 9.05287 1.9567 8.91426C1.8181 8.77566 1.74023 8.58767 1.74023 8.39166C1.74023 8.19565 1.8181 8.00766 1.9567 7.86906C2.09531 7.73045 2.28329 7.65259 2.47931 7.65259Z" fill="#022561" stroke="#022561"/>
<path d="M2.78544 8.39166L8.91531 14.5201C9.05409 14.6588 9.13205 14.8471 9.13205 15.0433C9.13205 15.2396 9.05409 15.4278 8.91531 15.5666C8.77653 15.7054 8.58831 15.7833 8.39205 15.7833C8.19579 15.7833 8.00756 15.7054 7.86878 15.5666L1.21713 8.91492C1.1483 8.84627 1.0937 8.76471 1.05644 8.67492C1.01918 8.58513 1 8.48887 1 8.39166C1 8.29445 1.01918 8.19819 1.05644 8.1084C1.0937 8.01861 1.1483 7.93705 1.21713 7.8684L7.86878 1.21674C8.00756 1.07796 8.19579 1 8.39205 1C8.58831 1 8.77653 1.07796 8.91531 1.21674C9.05409 1.35552 9.13205 1.54374 9.13205 1.74001C9.13205 1.93627 9.05409 2.12449 8.91531 2.26327L2.78544 8.39166Z" fill="#022561" stroke="#022561"/>
</svg>
