<svg width="20" height="20" viewBox="0 0 24 18" fill="none" xmlns="http://www.w3.org/2000/svg">
<path d="M5.4 5.14286C5.4 6.26945 4.55406 7.11429 3.6 7.11429C2.64594 7.11429 1.8 6.26945 1.8 5.14286C1.8 4.01626 2.64594 3.17143 3.6 3.17143C4.55406 3.17143 5.4 4.01626 5.4 5.14286ZM22.2 5.14286C22.2 6.26945 21.3541 7.11429 20.4 7.11429C19.4459 7.11429 18.6 6.26945 18.6 5.14286C18.6 4.01626 19.4459 3.17143 20.4 3.17143C21.3541 3.17143 22.2 4.01626 22.2 5.14286ZM19.2 9.6H21.6C22.5541 9.6 23.4 10.4448 23.4 11.5714V12.8571C23.4 13.2766 23.0941 13.5429 22.8 13.5429H20.8354C20.5238 11.9981 19.698 10.6597 18.5448 9.73495C18.7492 9.6472 18.9702 9.6 19.2 9.6ZM15.6 4.5C15.6 6.69534 13.9516 8.4 12 8.4C10.0484 8.4 8.4 6.69534 8.4 4.5C8.4 2.30466 10.0484 0.6 12 0.6C13.9516 0.6 15.6 2.30466 15.6 4.5ZM12 11.5286C12.9763 11.5286 13.8901 11.2862 14.7107 10.8857H14.88C16.8953 10.8857 18.6 12.6506 18.6 14.9143V16.0714C18.6 16.8445 18.0241 17.4 17.4 17.4H6.6C5.97594 17.4 5.4 16.8445 5.4 16.0714V14.9143C5.4 12.6506 7.10469 10.8857 9.12 10.8857H9.28982C10.1124 11.2858 11.0228 11.5286 12 11.5286ZM4.8 9.6C5.02982 9.6 5.25084 9.6472 5.45517 9.73494C4.30173 10.6598 3.47569 11.9984 3.16174 13.5429H1.2C0.905938 13.5429 0.6 13.2766 0.6 12.8571V11.5714C0.6 10.4448 1.44594 9.6 2.4 9.6H4.8Z" stroke="#022561" stroke-width="1.2"/>
</svg>
