<svg width="23" height="23" viewBox="0 0 23 23" fill="none" xmlns="http://www.w3.org/2000/svg">
<path d="M16.7229 21.802C15.64 21.802 14.4995 21.5433 13.3208 21.045C12.1708 20.5562 11.0112 19.8854 9.88038 19.0708C8.75913 18.2466 7.67621 17.3266 6.65079 16.3204C5.63496 15.295 4.71496 14.212 3.90038 13.1004C3.07621 11.9504 2.41496 10.8004 1.94538 9.68871C1.44704 8.50038 1.19788 7.35038 1.19788 6.26746C1.19788 5.51996 1.33204 4.81079 1.59079 4.14954C1.85913 3.46913 2.29038 2.83663 2.87496 2.29038C3.61288 1.56204 4.45621 1.19788 5.35704 1.19788C5.73079 1.19788 6.11413 1.28413 6.43996 1.43746C6.81371 1.60996 7.12996 1.86871 7.35996 2.21371L9.58329 5.34746C9.78454 5.62538 9.93788 5.89371 10.0433 6.16204C10.1679 6.44954 10.235 6.73704 10.235 7.01496C10.235 7.37913 10.1295 7.73371 9.92829 8.06913C9.78454 8.32788 9.56413 8.60579 9.28621 8.88371L8.63454 9.56413C8.64413 9.59288 8.65371 9.61204 8.66329 9.63121C8.77829 9.83246 9.00829 10.1775 9.44913 10.695C9.91871 11.2316 10.3595 11.7204 10.8004 12.1708C11.3658 12.7266 11.8354 13.1675 12.2762 13.5316C12.8225 13.9916 13.177 14.2216 13.3879 14.327L13.3687 14.375L14.0683 13.685C14.3654 13.3879 14.6529 13.1675 14.9308 13.0237C15.4579 12.6979 16.1287 12.6404 16.7995 12.9183C17.0487 13.0237 17.317 13.1675 17.6045 13.3687L20.7862 15.6304C21.1408 15.87 21.3995 16.1766 21.5529 16.5408C21.6966 16.905 21.7637 17.2404 21.7637 17.5758C21.7637 18.0358 21.6583 18.4958 21.457 18.927C21.2558 19.3583 21.0066 19.732 20.6904 20.077C20.1441 20.6808 19.55 21.112 18.86 21.39C18.1987 21.6583 17.48 21.802 16.7229 21.802ZM5.35704 2.63538C4.82996 2.63538 4.34121 2.86538 3.87163 3.32538C3.43079 3.73746 3.12413 4.18788 2.93246 4.67663C2.73121 5.17496 2.63538 5.70204 2.63538 6.26746C2.63538 7.15871 2.84621 8.12663 3.26788 9.12329C3.69913 10.1391 4.30288 11.1933 5.06954 12.2475C5.83621 13.3016 6.70829 14.327 7.66663 15.295C8.62496 16.2437 9.65996 17.1254 10.7237 17.9016C11.7587 18.6587 12.8225 19.272 13.8766 19.7129C15.5154 20.4125 17.0487 20.5754 18.3137 20.0483C18.8025 19.847 19.2337 19.5404 19.6266 19.0995C19.847 18.86 20.0195 18.6012 20.1633 18.2945C20.2783 18.055 20.3358 17.8058 20.3358 17.5566C20.3358 17.4033 20.307 17.25 20.2304 17.0775C20.2016 17.02 20.1441 16.9145 19.962 16.79L16.7804 14.5283C16.5887 14.3941 16.4162 14.2983 16.2533 14.2312C16.0425 14.145 15.9562 14.0587 15.6304 14.26C15.4387 14.3558 15.2662 14.4995 15.0745 14.6912L14.3462 15.41C13.9725 15.7741 13.3975 15.8604 12.9566 15.6975L12.6979 15.5825C12.305 15.3716 11.845 15.0458 11.337 14.6145C10.877 14.2216 10.3787 13.7616 9.77496 13.1675C9.30538 12.6883 8.83579 12.1804 8.34704 11.615C7.89663 11.0879 7.57079 10.6375 7.36954 10.2637L7.25454 9.97621C7.19704 9.75579 7.17788 9.63121 7.17788 9.49704C7.17788 9.15204 7.30246 8.84538 7.54204 8.60579L8.26079 7.85829C8.45246 7.66663 8.59621 7.48454 8.69204 7.32163C8.76871 7.19704 8.79746 7.09163 8.79746 6.99579C8.79746 6.91913 8.76871 6.80413 8.72079 6.68913C8.65371 6.53579 8.54829 6.36329 8.41413 6.18121L6.19079 3.03788C6.09496 2.90371 5.97996 2.80788 5.83621 2.74079C5.68288 2.67371 5.51996 2.63538 5.35704 2.63538ZM13.3687 14.3845L13.2154 15.0362L13.4741 14.3654C13.4262 14.3558 13.3879 14.3654 13.3687 14.3845Z" fill="white"/>
<path d="M17.7292 9.34379C17.3362 9.34379 17.0104 9.01796 17.0104 8.62504C17.0104 8.28004 16.6654 7.56129 16.0904 6.94796C15.525 6.34421 14.9021 5.98962 14.375 5.98962C13.9821 5.98962 13.6562 5.66379 13.6562 5.27087C13.6562 4.87796 13.9821 4.55212 14.375 4.55212C15.3046 4.55212 16.2821 5.05046 17.135 5.96087C17.9304 6.81379 18.4479 7.85837 18.4479 8.62504C18.4479 9.01796 18.1221 9.34379 17.7292 9.34379Z" fill="white"/>
<path d="M21.0833 9.34371C20.6904 9.34371 20.3646 9.01788 20.3646 8.62496C20.3646 5.31871 17.6813 2.63538 14.375 2.63538C13.9821 2.63538 13.6562 2.30954 13.6562 1.91663C13.6562 1.52371 13.9821 1.19788 14.375 1.19788C18.4671 1.19788 21.8021 4.53288 21.8021 8.62496C21.8021 9.01788 21.4762 9.34371 21.0833 9.34371Z" fill="white"/>
</svg>
