<svg width="28" height="21" viewBox="0 0 28 21" fill="none" xmlns="http://www.w3.org/2000/svg">
<path d="M23.75 2.625C24.181 2.625 24.5943 2.7962 24.899 3.10095C25.2038 3.4057 25.375 3.81902 25.375 4.25V17.25C25.375 17.681 25.2038 18.0943 24.899 18.399C24.5943 18.7038 24.181 18.875 23.75 18.875H4.25C3.81902 18.875 3.4057 18.7038 3.10095 18.399C2.7962 18.0943 2.625 17.681 2.625 17.25V4.25C2.625 3.81902 2.7962 3.4057 3.10095 3.10095C3.4057 2.7962 3.81902 2.625 4.25 2.625H23.75ZM4.25 1C3.38805 1 2.5614 1.34241 1.9519 1.9519C1.34241 2.5614 1 3.38805 1 4.25L1 17.25C1 18.112 1.34241 18.9386 1.9519 19.5481C2.5614 20.1576 3.38805 20.5 4.25 20.5H23.75C24.612 20.5 25.4386 20.1576 26.0481 19.5481C26.6576 18.9386 27 18.112 27 17.25V4.25C27 3.38805 26.6576 2.5614 26.0481 1.9519C25.4386 1.34241 24.612 1 23.75 1H4.25Z" fill="white" stroke="white" stroke-width="0.8"/>
<path d="M4.25 6.6875C4.25 6.47201 4.3356 6.26535 4.48798 6.11298C4.64035 5.9606 4.84701 5.875 5.0625 5.875H8.3125C8.52799 5.875 8.73465 5.9606 8.88702 6.11298C9.0394 6.26535 9.125 6.47201 9.125 6.6875V8.3125C9.125 8.52799 9.0394 8.73465 8.88702 8.88702C8.73465 9.0394 8.52799 9.125 8.3125 9.125H5.0625C4.84701 9.125 4.64035 9.0394 4.48798 8.88702C4.3356 8.73465 4.25 8.52799 4.25 8.3125V6.6875ZM4.25 11.5625C4.25 11.347 4.3356 11.1403 4.48798 10.988C4.64035 10.8356 4.84701 10.75 5.0625 10.75H13.1875C13.403 10.75 13.6096 10.8356 13.762 10.988C13.9144 11.1403 14 11.347 14 11.5625C14 11.778 13.9144 11.9847 13.762 12.137C13.6096 12.2894 13.403 12.375 13.1875 12.375H5.0625C4.84701 12.375 4.64035 12.2894 4.48798 12.137C4.3356 11.9847 4.25 11.778 4.25 11.5625ZM4.25 14.8125C4.25 14.597 4.3356 14.3903 4.48798 14.238C4.64035 14.0856 4.84701 14 5.0625 14H6.6875C6.90299 14 7.10965 14.0856 7.26202 14.238C7.4144 14.3903 7.5 14.597 7.5 14.8125C7.5 15.028 7.4144 15.2347 7.26202 15.387C7.10965 15.5394 6.90299 15.625 6.6875 15.625H5.0625C4.84701 15.625 4.64035 15.5394 4.48798 15.387C4.3356 15.2347 4.25 15.028 4.25 14.8125ZM9.125 14.8125C9.125 14.597 9.2106 14.3903 9.36298 14.238C9.51535 14.0856 9.72201 14 9.9375 14H11.5625C11.778 14 11.9847 14.0856 12.137 14.238C12.2894 14.3903 12.375 14.597 12.375 14.8125C12.375 15.028 12.2894 15.2347 12.137 15.387C11.9847 15.5394 11.778 15.625 11.5625 15.625H9.9375C9.72201 15.625 9.51535 15.5394 9.36298 15.387C9.2106 15.2347 9.125 15.028 9.125 14.8125ZM14 14.8125C14 14.597 14.0856 14.3903 14.238 14.238C14.3903 14.0856 14.597 14 14.8125 14H16.4375C16.653 14 16.8597 14.0856 17.012 14.238C17.1644 14.3903 17.25 14.597 17.25 14.8125C17.25 15.028 17.1644 15.2347 17.012 15.387C16.8597 15.5394 16.653 15.625 16.4375 15.625H14.8125C14.597 15.625 14.3903 15.5394 14.238 15.387C14.0856 15.2347 14 15.028 14 14.8125ZM18.875 14.8125C18.875 14.597 18.9606 14.3903 19.113 14.238C19.2653 14.0856 19.472 14 19.6875 14H21.3125C21.528 14 21.7346 14.0856 21.887 14.238C22.0394 14.3903 22.125 14.597 22.125 14.8125C22.125 15.028 22.0394 15.2347 21.887 15.387C21.7346 15.5394 21.528 15.625 21.3125 15.625H19.6875C19.472 15.625 19.2653 15.5394 19.113 15.387C18.9606 15.2347 18.875 15.028 18.875 14.8125Z" fill="white" stroke="white" stroke-width="0.8"/>
</svg>
