<svg width="20" height="17" viewBox="0 0 20 17" fill="none" xmlns="http://www.w3.org/2000/svg">
<path d="M19.8864 2.07071C19.7542 1.92043 19.5412 1.88263 19.3664 1.97532C19.2577 2.03292 19.0534 2.10851 18.8108 2.1832C19.1169 1.76205 19.3629 1.2905 19.4716 0.866651C19.5186 0.683972 19.4499 0.491394 19.3003 0.382507C19.1508 0.274519 18.9516 0.274519 18.8021 0.382507C18.5664 0.552587 17.4291 1.06373 16.7099 1.22931C15.0847 -0.243821 13.1935 -0.396804 11.2274 0.79106C9.62916 1.75665 9.28134 3.72022 9.34916 4.91709C5.69095 4.55263 3.41706 2.55306 2.13708 0.898148C2.04752 0.782061 1.90317 0.720868 1.76752 0.729867C1.62491 0.740666 1.49622 0.822556 1.42318 0.949442C0.817967 2.00682 0.650143 3.17579 0.939705 4.33035C1.09796 4.96028 1.37448 5.51552 1.69535 5.96547C1.54144 5.88718 1.39274 5.78909 1.25274 5.6721C1.12405 5.56231 0.944053 5.54162 0.791881 5.61451C0.640578 5.6892 0.544058 5.84758 0.544058 6.02126C0.544058 8.00373 1.7423 9.32658 2.86142 10.0177C2.68055 9.9952 2.49186 9.95381 2.30143 9.89352C2.13795 9.84222 1.96056 9.89351 1.84752 10.0267C1.73448 10.159 1.70752 10.348 1.77796 10.509C2.40664 11.948 3.59793 12.9379 5.07183 13.2969C3.78489 14.0789 2.0623 14.4623 0.484928 14.2742C0.280583 14.2445 0.0858026 14.3786 0.0214556 14.582C-0.0428914 14.7854 0.0414554 15.0085 0.221453 15.1129C2.61447 16.5033 4.77792 17 6.64746 17C9.36829 17 11.4683 15.9489 12.7465 15.0697C16.1926 12.703 18.3404 8.45368 18.0412 4.65162C18.5934 4.22957 19.4195 3.45025 19.9316 2.61245C20.0377 2.44327 20.0186 2.2201 19.8864 2.07071Z" fill="white"/>
</svg>
