<svg width="22" height="22" viewBox="0 0 22 22" fill="none" xmlns="http://www.w3.org/2000/svg">
<path fill-rule="evenodd" clip-rule="evenodd" d="M15 1.5H19C19.8284 1.5 20.5 2.17157 20.5 3V7C20.5 7.82843 19.8284 8.5 19 8.5H15C14.1716 8.5 13.5 7.82843 13.5 7V3C13.5 2.17157 14.1716 1.5 15 1.5ZM12 3C12 1.34315 13.3431 0 15 0H19C20.6569 0 22 1.34315 22 3V7C22 8.65685 20.6569 10 19 10H15C13.3431 10 12 8.65685 12 7V3ZM7 13.5C7.82843 13.5 8.5 14.1716 8.5 15V19C8.5 19.8284 7.82843 20.5 7 20.5H3C2.17157 20.5 1.5 19.8284 1.5 19V15C1.5 14.1716 2.17157 13.5 3 13.5H7ZM0 15C0 13.3431 1.34315 12 3 12H7C8.65685 12 10 13.3431 10 15V19C10 20.6569 8.65685 22 7 22H3C1.34315 22 0 20.6569 0 19V15ZM5 8.5C6.933 8.5 8.5 6.933 8.5 5C8.5 3.067 6.933 1.5 5 1.5C3.067 1.5 1.5 3.067 1.5 5C1.5 6.933 3.067 8.5 5 8.5ZM5 10C7.76142 10 10 7.76142 10 5C10 2.23858 7.76142 0 5 0C2.23858 0 0 2.23858 0 5C0 7.76142 2.23858 10 5 10ZM20.5 17C20.5 18.933 18.933 20.5 17 20.5C15.067 20.5 13.5 18.933 13.5 17C13.5 15.067 15.067 13.5 17 13.5C18.933 13.5 20.5 15.067 20.5 17ZM22 17C22 19.7614 19.7614 22 17 22C14.2386 22 12 19.7614 12 17C12 14.2386 14.2386 12 17 12C19.7614 12 22 14.2386 22 17Z" fill="white"/>
</svg>
