<svg width="25" height="22" viewBox="0 0 25 22" fill="none" xmlns="http://www.w3.org/2000/svg">
<path fill-rule="evenodd" clip-rule="evenodd" d="M12.6348 0.333344C9.84941 0.333344 7.39849 1.83713 6.25235 4.08134C6.10213 4.37547 6.00428 4.56657 5.92799 4.70125C5.91189 4.72968 5.89854 4.75237 5.88762 4.77032L5.86495 4.77177C5.76134 4.77764 5.61847 4.77802 5.37194 4.77802L5.36293 4.77801C2.88602 4.77801 0.726562 6.63798 0.726562 9.11134C0.726562 10.9575 1.92974 12.462 3.57002 13.1062L5.38243 11.4449C5.3805 11.4448 5.37857 11.4448 5.37664 11.4448C5.37858 11.4448 5.38051 11.4448 5.38244 11.4448L5.38262 11.4447H5.36769L5.36328 11.4447H5.36327H5.36326H5.36325H5.36325H5.36324H5.36323H5.36322H5.36322H5.36321H5.3632H5.36319H5.36319H5.36318H5.36317H5.36316H5.36316H5.36315H5.36314H5.36313H5.36313H5.36312H5.36311H5.3631H5.3631H5.36309H5.36308H5.36307H5.36307H5.36306H5.36305H5.36304H5.36304H5.36303H5.36302H5.36301H5.36301H5.363H5.36299H5.36298H5.36298H5.36297H5.36296H5.36295H5.36295H5.36294H5.36293C3.82322 11.4447 2.72656 10.3199 2.72656 9.11134C2.72656 7.9028 3.82322 6.77801 5.36293 6.77801L5.36971 6.77801L5.37194 5.77802V6.77802L5.39584 6.77802H5.39586C5.61012 6.77803 5.81083 6.77804 5.97807 6.76857C6.15279 6.75867 6.37058 6.7356 6.59406 6.65244C6.6925 6.61581 6.81412 6.56639 6.94301 6.48749C7.07191 6.40858 7.17124 6.32275 7.24864 6.25174C7.44168 6.07463 7.57669 5.84853 7.66819 5.68702C7.76848 5.50997 7.88613 5.27959 8.02333 5.01092L8.02334 5.01091L8.03351 4.991C8.82004 3.45093 10.5607 2.33334 12.6348 2.33334C14.616 2.33334 16.2953 3.35384 17.1264 4.78939L17.1429 4.81795C17.3647 5.20101 17.5548 5.52944 17.7194 5.77641C17.87 6.00232 18.0961 6.31712 18.4318 6.51065C18.7345 6.6852 19.0485 6.73622 19.3044 6.75778C19.5455 6.77807 19.8362 6.77805 20.1445 6.77802L20.1799 6.77802H20.2118C21.5004 6.77802 22.5451 7.82268 22.5451 9.11135C22.5451 10.4 21.5004 11.4447 20.2118 11.4447H19.8894L21.7604 13.1598C23.3888 12.5365 24.5451 10.9589 24.5451 9.11135C24.5451 6.71811 22.605 4.77802 20.2118 4.77802H20.1799C19.8235 4.77802 19.6189 4.77718 19.4723 4.76483L19.4502 4.76281C19.4322 4.73842 19.4102 4.70708 19.3836 4.66718C19.2585 4.47942 19.1001 4.20691 18.8573 3.78735C17.653 1.70727 15.2981 0.333344 12.6348 0.333344ZM5.89954 4.78127C5.9063 4.77715 5.91259 4.77363 5.91802 4.77076L5.85335 4.8232C5.8565 4.81921 5.86514 4.80879 5.8793 4.79457L5.87998 4.79408C5.88508 4.79048 5.89119 4.7864 5.89809 4.78216L5.89882 4.78171L5.89954 4.78127ZM5.85199 4.82498L5.85335 4.8232C5.85244 4.82443 5.85199 4.825 5.85199 4.82498Z" fill="white"/>
<path d="M12.5558 11.4075L11.8883 10.6628L12.5558 10.0646L13.2232 10.6628L12.5558 11.4075ZM13.5558 20.3704C13.5558 20.9227 13.1081 21.3704 12.5558 21.3704C12.0035 21.3704 11.5558 20.9227 11.5558 20.3704L13.5558 20.3704ZM7.44389 14.6463L11.8883 10.6628L13.2232 12.1521L8.77877 16.1357L7.44389 14.6463ZM13.2232 10.6628L17.6677 14.6463L16.3328 16.1357L11.8883 12.1521L13.2232 10.6628ZM13.5558 11.4075L13.5558 20.3704L11.5558 20.3704L11.5558 11.4075L13.5558 11.4075Z" fill="white"/>
</svg>
