<svg width="18" height="18" viewBox="0 0 18 18" fill="none" xmlns="http://www.w3.org/2000/svg">
<path d="M14.75 3H4.25C3.65326 3 3.08097 3.23705 2.65901 3.65901C2.23705 4.08097 2 4.65326 2 5.25V12.75C2 13.3467 2.23705 13.919 2.65901 14.341C3.08097 14.7629 3.65326 15 4.25 15H14.75C15.3467 15 15.919 14.7629 16.341 14.341C16.7629 13.919 17 13.3467 17 12.75V5.25C17 4.65326 16.7629 4.08097 16.341 3.65901C15.919 3.23705 15.3467 3 14.75 3ZM14.4425 4.5L10.0325 8.91C9.96278 8.9803 9.87983 9.03609 9.78843 9.07417C9.69704 9.11225 9.59901 9.13185 9.5 9.13185C9.40099 9.13185 9.30296 9.11225 9.21157 9.07417C9.12017 9.03609 9.03722 8.9803 8.9675 8.91L4.5575 4.5H14.4425ZM15.5 12.75C15.5 12.9489 15.421 13.1397 15.2803 13.2803C15.1397 13.421 14.9489 13.5 14.75 13.5H4.25C4.05109 13.5 3.86032 13.421 3.71967 13.2803C3.57902 13.1397 3.5 12.9489 3.5 12.75V5.5575L7.91 9.9675C8.33188 10.3889 8.90375 10.6255 9.5 10.6255C10.0963 10.6255 10.6681 10.3889 11.09 9.9675L15.5 5.5575V12.75Z" fill="#2C2D30"/>
</svg>
