<svg width="28" height="21" viewBox="0 0 28 21" fill="none" xmlns="http://www.w3.org/2000/svg">
<path d="M6 6C6 7.16851 5.12823 8 4.2 8C3.27177 8 2.4 7.16851 2.4 6C2.4 4.83149 3.27177 4 4.2 4C5.12823 4 6 4.83149 6 6ZM25.6 6C25.6 7.16851 24.7282 8 23.8 8C22.8718 8 22 7.16851 22 6C22 4.83149 22.8718 4 23.8 4C24.7282 4 25.6 4.83149 25.6 6ZM24.5497 15.5C24.1843 13.9316 23.3771 12.5484 22.2641 11.5056C22.309 11.5019 22.3544 11.5 22.4 11.5H25.2C26.1282 11.5 27 12.3315 27 13.5V15C27 15.3435 26.7582 15.5 26.6 15.5H24.5497ZM17.9 5.25C17.9 7.66538 16.092 9.5 14 9.5C11.908 9.5 10.1 7.66538 10.1 5.25C10.1 2.83462 11.908 1 14 1C16.092 1 17.9 2.83462 17.9 5.25ZM14 13.75C15.1646 13.75 16.2536 13.4669 17.2311 13H17.36C19.5264 13 21.4 14.9049 21.4 17.4V18.75C21.4 19.506 20.8432 20 20.3 20H7.7C7.15677 20 6.6 19.506 6.6 18.75V17.4C6.6 14.9049 8.47365 13 10.64 13H10.7697C11.7488 13.4662 12.834 13.75 14 13.75ZM5.6 11.5C5.64561 11.5 5.69092 11.5019 5.73586 11.5056C4.62247 12.5485 3.8148 13.9319 3.44727 15.5H1.4C1.24177 15.5 1 15.3435 1 15V13.5C1 12.3315 1.87177 11.5 2.8 11.5H5.6Z" stroke="white" stroke-width="2"/>
</svg>
