<svg width="21" height="14" viewBox="0 0 21 14" fill="none" xmlns="http://www.w3.org/2000/svg">
<path fill-rule="evenodd" clip-rule="evenodd" d="M18.1566 0.436633C19.0286 0.667435 19.7154 1.34385 19.9494 2.20112C20.3838 3.76578 20.3635 7.02798 20.3635 7.02798C20.3635 7.02798 20.3604 10.2722 19.9392 11.8358C19.7021 12.6921 19.0123 13.3675 18.1414 13.5973C16.548 14.007 10.1736 14 10.1736 14C10.1736 14 3.8165 13.993 2.20688 13.5634C1.3339 13.3326 0.647109 12.6561 0.413093 11.7999C-0.00406687 10.2512 1.48914e-06 6.99001 1.48914e-06 6.99001C1.48914e-06 6.99001 0.00407284 3.74479 0.424285 2.18014C0.660336 1.32387 1.36645 0.632465 2.22112 0.403661C3.81549 -0.00698641 10.1889 7.58933e-06 10.1889 7.58933e-06C10.1889 7.58933e-06 16.5633 0.00700162 18.1566 0.436633ZM8.15508 4.00151L8.14999 9.99636L13.453 7.00393L8.15508 4.00151Z" fill="white"/>
</svg>
